<svg width="88" height="88" viewBox="0 0 88 88" fill="none" xmlns="http://www.w3.org/2000/svg">
<circle cx="44" cy="44" r="42" fill="#1680F4"/>
<path d="M45.3729 32.1547C45.8358 31.7719 46.3772 31.5609 46.9578 31.475C47.3384 31.4164 47.7228 31.3656 48.1033 31.3109C51.1555 21.545 55.4473 6.55615 56.2789 3.81386C53.678 3.02477 50.975 2.47787 48.1897 2.20052C47.8994 5.185 46.0908 22.1153 45.2905 32.2289C45.3219 32.2016 45.3455 32.1743 45.3768 32.1508L45.3729 32.1547Z" fill="#1680F4"/>
<path d="M11.9139 24.7951C12.7887 25.1974 13.7302 25.3381 14.6718 25.4592C16.1468 25.6467 17.6258 25.8264 19.1009 26.0139C20.6661 26.2131 22.2001 26.5725 23.7301 26.9514C23.7693 26.9631 23.8124 26.9709 23.8517 26.9788C18.1711 22.5059 12.8829 18.4277 11.5294 17.3222C13.283 15.2049 15.2328 13.2517 17.3473 11.5016C18.787 13.2439 25.668 21.6075 31.7919 28.8382C32.5216 29.0101 33.2473 29.1859 33.977 29.3538C34.9892 29.5882 36.0052 29.8226 37.0213 30.0453C32.2116 21.1387 25.4523 9.18906 24.244 6.93117C26.6645 5.63034 29.2105 4.57951 31.8429 3.78652C32.6432 6.41552 37.0919 20.9199 40.3166 30.6195C40.5716 30.6508 40.8266 30.6859 41.0777 30.725C41.7485 30.8305 42.3958 31.0297 42.9961 31.3539C43.0941 31.4047 43.1765 31.4672 43.2589 31.5297C42.2664 21.459 40.2264 5.09516 39.9361 2.1888C26.1545 3.50135 14.3187 11.4469 7.68091 22.7794C8.48121 23.1231 9.26189 23.5255 10.0543 23.8966C10.6742 24.1896 11.2783 24.5021 11.9021 24.7912L11.9139 24.7951Z" fill="#1680F4"/>
<path d="M43.4704 64.5791C53.3407 64.5791 61.5438 71.6614 63.2503 80.9977C76.7613 74.0482 86 60.0087 86 43.8206C86 43.1331 85.9804 42.4494 85.949 41.7697C85.6587 41.7228 85.3684 41.676 85.0742 41.6291C83.9561 41.4533 82.8341 41.2931 81.7121 41.1525C81.1786 41.0861 80.6411 41.0861 80.1115 41.2463C79.7506 41.3556 79.4721 41.5588 79.3191 41.8947C79.0327 42.5198 78.762 43.1565 78.4952 43.7893C78.0598 44.8128 77.6949 45.8714 77.1928 46.8637C76.0786 49.063 74.2897 50.5122 71.932 51.2622C71.1199 51.5201 70.3 51.7662 69.4762 51.9927C68.6288 52.2271 67.8874 52.6412 67.2204 53.1959C66.1377 54.0944 65.1098 55.0436 64.1801 56.1023C63.4936 56.8835 63.0032 57.782 62.4736 58.6649C61.9479 59.5399 61.43 60.4188 60.8847 61.2821C60.0609 62.5869 58.8683 63.1416 57.3305 62.9267C56.181 62.7666 55.0629 62.5048 54.0194 61.9736C52.7915 61.3446 52.1089 60.3173 51.7637 59.0281C51.4969 58.0359 51.493 57.032 51.6185 55.9851C51.3557 55.9851 51.1007 55.9812 50.8496 55.9773C49.7394 55.9616 48.6252 55.946 47.515 55.9343C46.9187 55.9265 46.3224 55.9421 45.7261 55.9108C44.0667 55.8249 42.9722 54.6608 43.0075 53.0318C42.9643 53.1725 42.9133 53.3131 42.8545 53.4498C42.6976 53.8131 42.47 54.1217 42.1562 54.3717C42.0542 54.4538 41.9875 54.5866 41.9365 54.7116C41.7089 55.2663 41.5285 55.8405 41.2696 56.3796C40.8419 57.2781 40.0809 57.7273 39.1001 57.825C38.751 57.8601 38.445 57.9617 38.1311 58.1258C37.2955 58.5594 36.4089 58.8563 35.4439 58.7703C35.3066 58.7586 35.2556 58.7977 35.2242 58.9344C34.9299 60.1962 33.9767 60.9384 32.6781 60.9931C31.4973 61.0438 30.4655 60.6493 29.4965 60.0438C28.7551 59.579 28.0254 59.0946 27.2996 58.6063C27.0133 58.4149 26.719 58.2625 26.3816 58.1961C26.0011 58.1219 25.6637 57.95 25.4127 57.6609C24.8321 56.989 24.2593 56.3132 23.7022 55.6218C23.3335 55.1647 23 54.6803 22.6391 54.2155C22.5332 54.0827 22.3919 53.9616 22.2468 53.8717C21.7995 53.6022 21.3563 53.3248 20.8855 53.1022C20.2892 52.817 19.9636 52.3443 19.7988 51.7388C19.74 51.5201 19.689 51.2974 19.6772 51.0708C19.6654 50.899 19.6027 50.8404 19.4379 50.7974C18.0374 50.4341 16.6329 50.0669 15.2363 49.6841C14.13 49.3794 13.2356 48.7582 12.5137 47.8676C11.89 47.0941 11.2819 46.3129 10.8386 45.4222C10.7954 45.3402 10.7052 45.262 10.6189 45.223C9.99121 44.9222 9.391 44.5862 8.8967 44.0862C8.5044 43.6917 8.19054 43.2424 7.9787 42.7268C7.95516 42.6721 7.89239 42.6057 7.83746 42.594C7.25293 42.4807 6.70764 42.2619 6.1898 41.9807C5.57388 41.6486 4.93835 41.4689 4.22435 41.5119C3.50252 41.5549 2.78068 41.5353 2.05884 41.5666C2.01961 42.3088 2 43.0588 2 43.8128C2 59.6141 10.8033 73.3685 23.7924 80.482C25.699 71.3958 33.7805 64.5713 43.4704 64.5713V64.5791Z" fill="#1680F4"/>
<path d="M64.4226 28.2491C66.2429 27.7959 68.0554 27.2959 69.8678 26.8076C71.7234 26.3115 73.5751 25.7959 75.4307 25.3037C77.2745 24.8154 79.1222 24.3544 80.9896 23.9989C79.7107 21.6395 78.2121 19.4167 76.5213 17.3581C74.9167 18.6667 68.6987 23.6239 62.418 28.7218C63.0849 28.5655 63.7557 28.4092 64.4187 28.2452L64.4226 28.2491Z" fill="#1680F4"/>
<path d="M52.1436 30.7378C53.1989 30.5777 54.2503 30.3863 55.3016 30.1948C61.5785 22.7415 69.0872 13.5693 70.7348 11.5692C68.6164 9.82693 66.3253 8.28781 63.8931 6.98307C62.5632 9.45973 55.5998 21.968 50.8254 30.9292C51.2648 30.8667 51.7042 30.8081 52.1436 30.7417V30.7378Z" fill="#1680F4"/>
<path d="M84.227 31.7724C84.2702 31.7607 84.3133 31.7451 84.3525 31.7333C83.5405 29.1122 82.497 26.573 81.2259 24.1354C81.1867 24.1549 81.1435 24.1784 81.0964 24.2018C81.2259 24.4401 81.3514 24.6823 81.4731 24.9245C82.5833 27.1043 83.5052 29.3934 84.2231 31.7685L84.227 31.7724Z" fill="#8CC5F9"/>
<path d="M50.8254 30.9241C55.5997 21.9629 62.5592 9.45464 63.893 6.97798C63.9008 6.96236 63.9087 6.94674 63.9166 6.93111C61.4843 5.642 58.9225 4.58727 56.2863 3.78646C56.2863 3.79427 56.2823 3.80599 56.2784 3.81381C55.4467 6.55609 51.1549 21.5449 48.1028 31.3109C49.009 31.182 49.9191 31.0531 50.8254 30.9241Z" fill="#8CC5F9"/>
<path d="M55.4341 30.166C56.768 29.9199 58.1018 29.6777 59.4278 29.3926C60.4282 29.1777 61.4246 28.955 62.4211 28.7246C68.7018 23.6267 74.9198 18.6695 76.5244 17.3609C76.5518 17.3374 76.5793 17.314 76.6068 17.2945C74.861 15.1811 72.9073 13.2396 70.7889 11.5013C70.7732 11.5208 70.7536 11.5443 70.7379 11.5638C69.0941 13.56 61.5855 22.7361 55.3047 30.1895C55.3478 30.1817 55.391 30.1738 55.4341 30.166Z" fill="#8CC5F9"/>
<path d="M24.2512 6.935C25.4595 9.18899 32.2189 21.1386 37.0285 30.0491C37.4915 30.1507 37.9544 30.2562 38.4212 30.346C39.0489 30.471 39.6884 30.5413 40.3278 30.6234C37.1031 20.9238 32.6544 6.41936 31.8541 3.79036C29.2217 4.57945 26.6757 5.63417 24.2551 6.935H24.2512Z" fill="#8CC5F9"/>
<path d="M11.5325 17.3257C12.8859 18.4273 18.1742 22.5095 23.8547 26.9823C25.114 27.2909 26.3812 27.5644 27.6444 27.8573C29.0292 28.1816 30.414 28.5136 31.795 28.8418C25.6711 21.611 18.7862 13.2436 17.3503 11.5052C15.2358 13.2592 13.2861 15.2085 11.5325 17.3257Z" fill="#8CC5F9"/>
<path d="M44.1928 32.7491C44.283 32.9718 44.3497 33.1944 44.4046 33.421C44.6008 32.9796 44.895 32.5811 45.2873 32.2335C46.0876 22.1159 47.8961 5.18563 48.1864 2.20506C48.1864 2.20115 48.1864 2.19333 48.1864 2.18943C46.4564 2.02926 44.7224 1.97066 42.9884 2.01363C42.7844 2.01754 42.5804 2.02536 42.3764 2.03317C42.2312 2.03708 42.09 2.04099 41.9449 2.0488C41.7644 2.05662 41.5879 2.06833 41.4074 2.08005C41.2191 2.09177 41.0308 2.10349 40.8425 2.1152C40.7483 2.12302 40.6581 2.13083 40.564 2.13864C40.356 2.15427 40.1481 2.16989 39.9402 2.18943C39.9402 2.18943 39.9402 2.18943 39.9402 2.19334C40.2305 5.09969 42.2744 21.4675 43.263 31.5342C43.6867 31.8389 43.9848 32.2452 44.1849 32.7491H44.1928Z" fill="#8CC5F9"/>
<path d="M48.9535 52.9721C53.7279 61.9333 62.5582 78.1896 63.8921 80.6663C63.8999 80.6819 63.9078 80.6975 63.9156 80.7131C61.4833 82.0022 58.9216 83.057 56.2853 83.8578C56.2853 83.85 56.2814 83.8383 56.2775 83.8304C55.4458 81.0882 49.2831 62.3513 46.231 52.5853C47.1372 52.7142 48.0473 52.8431 48.9535 52.9721Z" fill="#8CC5F9"/>
<path d="M55.4334 57.4782C56.7672 57.7243 58.1011 57.9665 59.4271 58.2517C60.4274 58.4665 61.4239 58.6892 62.4203 58.9197C68.7011 64.0175 74.9191 68.9747 76.5236 70.2834C76.5511 70.3068 76.5786 70.3302 76.606 70.3498C74.8603 72.4631 72.9066 74.4046 70.7882 76.1429C70.7725 76.1234 70.7528 76.1 70.7372 76.0804C69.0934 74.0843 61.5847 64.9082 55.304 57.4548C55.3471 57.4626 55.3902 57.4704 55.4334 57.4782Z" fill="#8CC5F9"/>
<path d="M24.2505 80.7092C25.4588 78.4553 32.2182 66.5056 37.0278 57.5951C37.4907 57.4936 37.9536 57.3881 38.4205 57.2982C39.0482 57.1732 39.6876 57.1029 40.3271 57.0209C37.1024 66.7205 32.6536 81.2249 31.8533 83.8539C29.221 83.0648 26.6749 82.0101 24.2544 80.7092H24.2505Z" fill="#8CC5F9"/>
<path d="M11.5317 70.3185C12.8852 69.2169 25.8837 59.0496 31.5643 54.5768C34.2402 53.921 28.8599 59.4998 31.7942 58.8025C25.6704 66.0332 18.7854 74.4007 17.3496 76.139C15.2351 74.3851 13.2853 72.4358 11.5317 70.3185Z" fill="#8CC5F9"/>
<path d="M44.192 51.4058C44.2823 51.1831 44.3489 50.9605 44.4039 50.7339C44.6 51.1753 44.8942 51.5738 45.2866 51.9214C46.0868 62.039 47.8954 82.8128 48.1857 85.7934C48.1857 85.7973 48.1857 85.8051 48.1857 85.809C46.4556 85.9691 44.7216 86.0277 42.9877 85.9848C42.7837 85.9809 42.5797 85.9731 42.3757 85.9652C42.2305 85.9613 42.0893 85.9574 41.9441 85.9496C41.7637 85.9418 41.5871 85.9301 41.4067 85.9184C41.2184 85.9066 41.0301 85.8949 40.8418 85.8832C40.7476 85.8754 40.6574 85.8676 40.5632 85.8598C40.3553 85.8441 40.1474 85.8285 39.9395 85.809C39.9395 85.809 39.9395 85.809 39.9395 85.8051C40.2298 82.8987 42.2737 62.6874 43.2623 52.6207C43.686 52.316 43.9841 51.9097 44.1842 51.4058H44.192Z" fill="#8CC5F9"/>
<path d="M6.1895 45.2246C6.70734 45.502 7.25263 45.7247 7.83717 45.838C7.89209 45.8497 7.95486 45.9161 7.9784 45.9708C8.19417 46.4864 8.50802 46.9317 8.8964 47.3302C9.3907 47.8302 9.99091 48.1662 10.6186 48.4669C10.7049 48.5099 10.7951 48.5841 10.8383 48.6662C11.2855 49.5607 11.8897 50.342 12.5134 51.1116C13.2353 52.0022 14.1297 52.6234 15.236 52.9281C16.6326 53.3109 18.0331 53.6781 19.4376 54.0414C19.6024 54.0843 19.6651 54.1429 19.6769 54.3148C19.6926 54.5375 19.7397 54.7641 19.7985 54.9828C19.9672 55.5883 20.2928 56.061 20.8852 56.3461C21.356 56.5727 21.7992 56.8501 22.2465 57.1157C22.3955 57.2055 22.5329 57.3227 22.6388 57.4595C22.9997 57.9204 23.3332 58.4087 23.7019 58.8658C24.259 59.5572 24.8318 60.233 25.4124 60.9049C25.6634 61.194 26.0008 61.3659 26.3813 61.4401C26.7187 61.5065 27.013 61.6549 27.2993 61.8502C28.0251 62.3385 28.7548 62.8229 29.4962 63.2878C30.4652 63.8972 31.497 64.2917 32.6778 64.237C33.9764 64.1784 34.9296 63.4401 35.2239 62.1784C35.2553 62.0417 35.3023 62.0026 35.4436 62.0143C36.4126 62.1003 37.2952 61.8034 38.1308 61.3698C38.4486 61.2057 38.7546 61.1002 39.0998 61.069C40.0806 60.9752 40.8417 60.5221 41.2693 59.6236C41.5282 59.0845 41.7086 58.5103 41.9362 57.9556C41.9872 57.8306 42.0539 57.6978 42.1559 57.6157C42.4697 57.3657 42.6973 57.0571 42.8542 56.6938C42.913 56.5571 42.964 56.4165 43.0072 56.2758C42.9719 57.9048 44.0664 59.0689 45.7258 59.1548C46.3221 59.1861 46.9184 59.1705 47.5147 59.1783C48.6249 59.1939 49.7391 59.2056 50.8493 59.2212C51.1004 59.2212 51.3554 59.2291 51.6182 59.2291C51.4966 60.276 51.5005 61.2799 51.7634 62.2721C52.1086 63.5612 52.7912 64.5886 54.0191 65.2175C55.0626 65.7527 56.1846 66.0105 57.3302 66.1707C58.868 66.3856 60.0606 65.827 60.8844 64.5261C61.4297 63.6628 61.9476 62.7839 62.4733 61.9088C63.0029 61.0299 63.4933 60.1275 64.1798 59.3462C65.1096 58.2915 66.1413 57.3423 67.2201 56.4399C67.891 55.8813 68.6285 55.4672 69.4759 55.2367C70.2997 55.0102 71.1157 54.7641 71.9317 54.5062C74.2895 53.7562 76.0783 52.3069 77.1925 50.1076C77.6946 49.1154 78.0634 48.0607 78.4949 47.0333C78.7617 46.4005 79.0324 45.7637 79.3188 45.1387C79.4718 44.8028 79.7503 44.5957 80.1112 44.4902C80.6408 44.334 81.1783 44.3301 81.7118 44.3965C82.8338 44.5371 83.9558 44.6973 85.0739 44.8731C85.3642 44.92 85.6545 44.9668 85.9487 45.0137C85.9055 44.1465 85.8349 43.2871 85.7408 42.4355C84.8659 42.2949 83.9872 42.162 83.1124 42.0253C82.4729 41.9277 81.8295 41.8769 81.1861 41.7948C81.1351 41.787 81.0645 41.7089 81.0488 41.6542C80.9861 41.3925 80.9547 41.119 80.888 40.8573C80.6761 40.0213 80.3192 39.2518 79.8209 38.5447C79.8209 38.5838 79.8288 38.615 79.8405 38.6502C80.0053 39.0565 80.2132 39.451 80.3192 39.8729C80.4565 40.4315 80.5153 41.0096 80.5977 41.58C80.6095 41.6659 80.5467 41.7597 80.5192 41.8495C80.4839 41.8573 80.4486 41.8691 80.4133 41.8769C80.0681 41.0526 79.6051 40.3104 79.001 39.6541C78.3969 38.9979 77.7025 38.4471 76.9885 37.9158C77.4004 38.3728 77.828 38.8065 78.2046 39.2791C78.7852 40.0057 79.1893 40.8221 79.3227 41.7519C79.3345 41.8417 79.307 41.9902 79.2442 42.0331C79.1344 42.1073 79.0049 42.08 78.9029 41.9511C78.6087 41.5761 78.2282 41.2987 77.8045 41.0839C77.6986 41.0331 77.5966 40.9784 77.4946 40.9276C77.5142 41.0097 77.5573 41.0448 77.6005 41.0839C77.9339 41.369 78.2125 41.6933 78.3773 42.1073C78.4439 42.2753 78.4322 42.3964 78.2713 42.5253C78.0791 42.6777 77.8751 42.8535 77.7574 43.0605C77.4004 43.6972 77.0513 44.3457 76.761 45.0137C76.2549 46.1739 75.843 47.3771 75.3016 48.5216C74.564 50.0803 73.3205 51.1585 71.7316 51.7952C70.8058 52.1663 69.8329 52.4202 68.8717 52.6976C67.8557 52.9906 66.8984 53.3968 66.0785 54.0609C65.392 54.6156 64.729 55.1977 64.0895 55.8031C63.1206 56.7251 62.1673 57.6704 61.469 58.8267C60.7628 59.9947 60.0763 61.1744 59.3662 62.3425C59.1622 62.6784 58.9151 62.9909 58.6562 63.2917C58.4404 63.5417 58.1305 63.6355 57.8009 63.6276C56.7692 63.6042 55.7727 63.3933 54.8116 63.0104C53.9642 62.6745 53.4503 62.0729 53.2228 61.2018C53.0501 60.5455 52.9834 59.8775 52.9952 59.2017C53.007 58.5298 53.1717 57.897 53.5013 57.311C54.69 55.1938 55.8826 53.0765 57.0673 50.9553C57.4282 50.3069 57.6362 49.6076 57.6126 48.8537C57.593 48.2599 57.0948 47.8732 56.5142 48.006C56.3847 48.0372 56.2631 48.0919 56.0748 48.1584C56.6829 46.9474 57.2674 45.7872 57.848 44.6309C57.7852 44.6309 57.7696 44.6504 57.7578 44.6699C57.2674 45.5332 56.6632 46.3028 55.8786 46.92C55.7217 47.0411 55.553 47.1466 55.3844 47.2482C55.2667 47.3185 55.1686 47.3224 55.1176 47.1505C55.0823 47.0255 55.0195 46.9083 54.9567 46.7911C53.9367 44.8379 52.4891 43.2519 50.7591 41.9042C50.7199 41.873 50.6689 41.8573 50.5708 41.8105C50.7905 42.1113 50.9709 42.3574 51.1514 42.6035C51.9595 43.7168 52.6931 44.8692 53.1835 46.1622C53.3914 46.713 53.4778 47.2833 53.5405 47.8771C52.7638 47.1739 51.8458 46.7481 50.8846 46.3927C51.1004 46.5567 51.3397 46.6895 51.5515 46.8536C52.4421 47.5411 53.2071 48.3459 53.874 49.2521C54.1054 49.5686 54.1133 49.5725 53.87 49.8889C52.8697 51.1858 51.6732 52.2757 50.2805 53.1429C49.8646 53.4007 49.437 53.6429 49.0173 53.8929C49.4056 53.7562 49.7862 53.596 50.1549 53.4242C51.7595 52.6741 53.3012 51.8225 54.6586 50.6741C54.7763 50.5764 54.894 50.4748 55.0234 50.3889C55.0666 50.3616 55.1686 50.3537 55.196 50.3811C55.2353 50.4241 55.2431 50.5061 55.247 50.5725C55.247 50.6116 55.2078 50.6506 55.1882 50.6858C54.1015 52.6273 53.0148 54.5648 51.936 56.5102C51.8497 56.6626 51.7398 56.6782 51.5908 56.6782C49.9706 56.6587 48.3503 56.643 46.734 56.6235C46.279 56.6196 45.82 56.6352 45.3649 56.5922C44.8157 56.5376 44.5411 56.2446 44.4979 55.7367C44.4862 55.6117 44.4783 55.4867 44.4901 55.3656C44.5764 54.3226 44.6823 53.2835 44.7529 52.2405C44.8235 51.2561 44.8549 50.2678 44.9099 49.2834C45.0079 47.5802 45.1178 45.8809 45.208 44.1777C45.3061 42.3378 45.3845 40.494 45.4787 38.6502C45.5062 38.0955 45.5179 37.5369 45.6081 36.99C45.7062 36.3962 46.0436 35.947 46.6674 35.7946C47.1107 35.6852 47.5579 35.5876 48.009 35.5251C49.6646 35.2946 51.3318 35.111 52.9834 34.8571C54.3722 34.6422 55.7531 34.3571 57.134 34.0914C58.2207 33.8844 59.3074 33.6891 60.3862 33.4469C61.8299 33.1227 63.2697 32.7711 64.7016 32.4078C66.259 32.0171 67.8086 31.6031 69.3582 31.189C70.6175 30.853 71.8689 30.4858 73.1282 30.1538C74.8779 29.6928 76.6315 29.228 78.3929 28.81C79.4168 28.5678 80.4486 28.3608 81.4804 28.1694C81.3587 27.9272 81.2293 27.685 81.1038 27.4467C81.0685 27.3803 81.0331 27.3139 80.9978 27.2474C79.1265 27.6029 77.2788 28.0639 75.4389 28.5522C73.5833 29.0444 71.7316 29.5561 69.876 30.0561C68.0636 30.5405 66.2551 31.0444 64.4309 31.4976C63.764 31.6617 63.097 31.8179 62.4301 31.9742C61.4337 32.2046 60.4372 32.4312 59.4368 32.6422C58.1108 32.9273 56.777 33.1695 55.4432 33.4156C55.4 33.4234 55.3569 33.4313 55.3137 33.4391C54.2623 33.6344 53.211 33.8258 52.1557 33.9821C51.7163 34.0485 51.2769 34.1071 50.8375 34.1696C49.9313 34.2985 49.0212 34.4274 48.115 34.5563C47.7344 34.611 47.35 34.6618 46.9694 34.7204C46.3888 34.8063 45.8474 35.0173 45.3845 35.4001C45.3531 35.4274 45.3296 35.4548 45.2982 35.4782C44.902 35.8259 44.6117 36.2243 44.4155 36.6657C44.3645 36.4392 44.2939 36.2165 44.2037 35.9938C43.9997 35.4899 43.7055 35.0837 43.2818 34.779C43.1955 34.7165 43.1131 34.654 43.0189 34.6032C42.4148 34.2789 41.7714 34.0797 41.1006 33.9743C40.8456 33.9352 40.5945 33.9 40.3395 33.8688C39.7001 33.7867 39.0606 33.7164 38.4329 33.5914C37.9661 33.4977 37.5032 33.3922 37.0402 33.2945C36.0242 33.0719 35.0081 32.8414 33.996 32.6031C33.2663 32.4351 32.5405 32.2593 31.8108 32.0875C30.426 31.7593 29.0451 31.4312 27.6603 31.1031C26.397 30.8062 25.1299 30.5327 23.8706 30.228C23.8314 30.2163 23.7882 30.2085 23.749 30.2007C22.219 29.8218 20.6851 29.4663 19.1198 29.2631C17.6448 29.0756 16.1658 28.8959 14.6907 28.7084C13.7453 28.5873 12.8037 28.4467 11.9328 28.0443C11.313 27.7592 10.7049 27.4428 10.0851 27.1498C9.29262 26.7787 8.51586 26.3763 7.71164 26.0326C7.53902 26.3294 7.37033 26.6263 7.20164 26.9232C8.09609 27.3334 8.97484 27.7826 9.8536 28.224C10.8893 28.7436 11.9407 29.2358 13.094 29.4116C14.6946 29.6577 16.307 29.8257 17.9115 30.0483C18.9629 30.1929 20.0143 30.3413 21.0539 30.5523C22.2583 30.7944 23.4469 31.1148 24.6434 31.3921C26.6991 31.8726 28.7548 32.3531 30.8105 32.8336C32.3875 33.2008 33.9646 33.5563 35.5377 33.9391C36.8755 34.2633 38.2172 34.5602 39.5902 34.7086C40.2022 34.7751 40.8103 34.904 41.4144 35.029C42.0225 35.1579 42.4383 35.5134 42.5364 36.1462C42.6149 36.6423 42.6933 37.1462 42.6933 37.6463C42.6933 38.4666 42.6423 39.2869 42.5796 40.1073C42.4972 41.2245 42.3952 42.3417 42.2736 43.4551C42.1951 44.1621 42.0421 44.8574 41.9597 45.5645C41.842 46.5528 41.7557 47.545 41.6576 48.5373C41.6263 48.8732 41.6106 49.2092 41.591 49.5451C41.5713 49.5451 41.5478 49.5451 41.5282 49.5451C41.5164 49.3146 41.4968 49.0842 41.4929 48.8537C41.485 47.6232 41.4772 46.3927 41.485 45.1621C41.4889 44.416 41.5556 43.666 41.5439 42.9199C41.5203 41.5214 41.3124 40.1503 40.826 38.8299C40.7279 38.5643 40.6259 38.3025 40.5278 38.0408C40.4925 38.1814 40.5239 38.3064 40.5239 38.4314C40.5357 39.4041 40.5867 40.3807 40.5396 41.3534C40.465 42.8222 40.3395 44.291 40.2022 45.7598C40.0061 47.8576 39.9904 49.9514 40.1708 52.0569C40.2728 53.2523 40.261 54.4555 40.2414 55.6547C40.2297 56.5024 40.0453 57.3266 39.5941 58.0689C39.5235 58.1861 39.4333 58.2915 39.3509 58.4009C39.3274 58.3892 39.3077 58.3814 39.2842 58.3696C39.2921 58.2407 39.3038 58.1118 39.3077 57.9829C39.3509 56.8423 39.4608 55.6977 39.4176 54.557C39.3313 52.0921 39.1077 49.635 38.6605 47.2013C38.4408 46.0098 38.3113 44.8067 38.4172 43.5957C38.4682 43.0332 38.5585 42.4746 38.6369 41.8456C38.4565 42.2089 38.2603 42.5097 38.1544 42.8378C37.9543 43.4629 37.7856 44.1035 37.6405 44.7442C37.3737 45.9395 37.3266 47.1583 37.4012 48.3732C37.46 49.3381 37.6052 50.2951 37.6562 51.26C37.7778 53.5101 37.7071 55.7563 37.5698 58.0024C37.5581 58.2056 37.5463 58.4165 37.4875 58.6118C37.4443 58.7564 37.3541 58.9283 37.2364 58.9986C36.491 59.4322 35.7064 59.6197 34.8473 59.3462C34.0195 59.0845 33.1878 58.8345 32.3561 58.5923C30.5908 58.0767 28.8019 57.6392 27.0875 56.9633C26.4991 56.7329 25.9067 56.4985 25.3574 56.1938C24.0981 55.4984 22.8624 54.7523 21.6149 54.0336C21.1951 53.7914 21.1049 53.264 21.4776 52.9515C21.7757 52.7015 22.1209 52.4827 22.4779 52.3265C23.1213 52.0413 23.8039 51.8772 24.5179 51.9788C25.738 52.1507 26.7776 52.7366 27.7936 53.3773C28.0879 53.5648 28.08 53.5804 27.9427 53.889C27.7073 54.4164 27.6799 54.9711 27.7348 55.5375C27.8133 55.3344 27.8682 55.1234 27.9349 54.9164C28.131 54.307 28.4841 53.8812 29.1785 53.7992C29.4531 53.7679 29.7277 53.6898 29.9827 53.5804C30.1671 53.5023 30.3279 53.4671 30.5123 53.5335C30.7869 53.6312 31.0733 53.7171 31.3401 53.8382C32.1953 54.2289 32.8112 54.9008 33.3761 55.6235C33.5134 55.7992 33.6468 55.975 33.7802 56.1508C33.7959 56.1391 33.8116 56.1274 33.8273 56.1157C33.5801 55.7211 33.3447 55.3188 33.0819 54.932C32.568 54.1742 31.9403 53.5335 31.1047 53.1234C30.9478 53.0452 30.9713 52.9749 31.0851 52.8616C31.4342 52.5179 31.7873 52.1741 32.109 51.803C32.3208 51.5608 32.4777 51.2717 32.6582 51.0022C32.6425 50.9905 32.6307 50.9788 32.615 50.9709C32.1914 51.3538 31.7088 51.6155 31.1361 51.7444C31.8344 50.9749 32.3522 50.1115 32.5994 49.1076C32.5641 49.1506 32.5405 49.1974 32.5209 49.2482C32.1208 50.1545 31.6186 50.9944 30.8458 51.6428C30.681 51.7835 30.4652 51.9202 30.2573 51.9475C28.8568 52.135 27.7544 51.6194 26.9345 50.4866C26.7972 50.299 26.703 50.0803 26.5893 49.8733C26.2794 49.3146 25.7811 49.1818 25.2397 49.5295C24.7651 49.8303 24.2629 49.9904 23.6941 49.9436C21.964 49.7951 20.3399 49.3185 18.8805 48.3615C18.6255 48.1935 18.3744 48.1115 18.0724 48.1466C17.9351 48.1623 17.7938 48.174 17.6526 48.1818C16.4521 48.2404 15.287 48.1076 14.1925 47.5607C13.0666 47.0021 11.9328 46.4552 10.8069 45.9005C10.0341 45.5176 9.49661 44.9434 9.324 44.0762C9.24946 43.6894 9.00232 43.4551 8.62178 43.3808C8.35502 43.33 8.06863 43.3418 7.81755 43.2597C7.35856 43.1074 6.91526 42.9043 6.47196 42.7128C6.42096 42.6894 6.37388 42.5917 6.37388 42.5292C6.37388 42.33 6.41703 42.1347 6.40526 41.9355C6.38565 41.5292 6.34249 41.1229 6.30718 40.7167C6.15811 41.1347 6.04042 41.5409 5.87173 41.9237C5.81289 42.0605 5.64419 42.162 5.51081 42.2558C5.39704 42.3339 5.28327 42.3027 5.21658 42.1738C5.09104 41.9355 4.94198 41.705 4.8439 41.4511C4.49867 40.5409 4.46728 39.5916 4.50259 38.6346C4.51436 38.3142 4.54182 37.99 4.56536 37.6697C4.54574 37.6697 4.52613 37.6697 4.50651 37.6697C4.17698 39.0799 4.00045 40.5057 4.0946 41.9628C3.39238 41.1815 3.05107 40.244 2.73331 39.2948C2.71761 39.3846 2.698 39.4705 2.6823 39.5604C2.89023 40.4745 3.19623 41.3651 3.74153 42.1933C3.6003 42.2128 3.51006 42.2363 3.41591 42.2363C3.0393 42.2363 2.66269 42.2519 2.28607 42.2714C2.188 43.1152 2.11347 43.9707 2.07031 44.8301C2.79215 44.7988 3.51398 44.8184 4.23582 44.7754C4.94982 44.7324 5.58535 44.9121 6.20127 45.2442L6.1895 45.2246ZM14.624 49.8068C15.8205 50.1272 17.0328 50.1819 18.2568 50.0061C18.3391 49.9943 18.4411 50.0061 18.5117 50.0412C19.3944 50.4905 20.3163 50.8303 21.2696 51.0842C21.2893 51.0881 21.3089 51.1038 21.352 51.1272C21.1441 51.3069 20.9597 51.4749 20.7636 51.6272C20.7204 51.6624 20.638 51.6702 20.5792 51.6585C19.7789 51.5061 18.9747 51.3616 18.1783 51.1897C17.2446 50.9905 16.3148 50.7756 15.3851 50.553C14.93 50.4436 14.573 50.1662 14.2435 49.7482C14.4004 49.7717 14.5102 49.7834 14.6162 49.8107L14.624 49.8068Z" fill="#0A3272"/>
<path d="M78.3895 28.8021C76.6281 29.2201 74.8784 29.6849 73.1248 30.1459C71.8655 30.4779 70.6141 30.8451 69.3548 31.1811C67.8052 31.5952 66.2556 32.0053 64.6981 32.3999C63.2623 32.7632 61.8265 33.1147 60.3828 33.439C59.304 33.6812 58.2173 33.8804 57.1306 34.0835C55.7497 34.3453 54.3688 34.6343 52.98 34.8492C51.3284 35.1031 49.6651 35.2867 48.0056 35.5172C47.5545 35.5797 47.1072 35.6773 46.6639 35.7867C46.0402 35.9391 45.7028 36.3922 45.6047 36.9821C45.5145 37.529 45.5027 38.0876 45.4753 38.6423C45.3811 40.4822 45.3027 42.326 45.2046 44.1698C45.1144 45.873 45.0045 47.5723 44.9064 49.2755C44.8515 50.2599 44.8162 51.2482 44.7495 52.2326C44.675 53.2756 44.573 54.3186 44.4867 55.3577C44.4749 55.4827 44.4867 55.6077 44.4945 55.7288C44.5416 56.2367 44.8162 56.5296 45.3615 56.5843C45.8126 56.6273 46.2716 56.6117 46.7306 56.6156C48.3508 56.6351 49.9711 56.6507 51.5873 56.6703C51.7364 56.6703 51.8463 56.6586 51.9326 56.5023C53.0114 54.5569 54.0981 52.6194 55.1848 50.6779C55.2044 50.6388 55.2475 50.5997 55.2436 50.5646C55.2436 50.4982 55.2358 50.4161 55.1926 50.3732C55.1652 50.3458 55.0632 50.3537 55.02 50.381C54.8905 50.4669 54.7729 50.5646 54.6552 50.6662C53.2978 51.8146 51.7561 52.6662 50.1515 53.4163C49.7788 53.5881 49.4022 53.7483 49.0138 53.885C49.4375 53.635 49.8612 53.3928 50.2771 53.135C51.6697 52.2678 52.8663 51.1779 53.8666 49.881C54.1099 49.5646 54.102 49.5607 53.8706 49.2442C53.2076 48.3419 52.4387 47.5332 51.5481 46.8457C51.3363 46.6816 51.097 46.5488 50.8812 46.3848C51.8384 46.7402 52.7564 47.166 53.5371 47.8692C53.4743 47.2754 53.388 46.7012 53.1801 46.1543C52.6897 44.8613 51.9561 43.7089 51.148 42.5956C50.9675 42.3495 50.7871 42.0994 50.5674 41.8026C50.6654 41.8494 50.7164 41.8651 50.7557 41.8963C52.4896 43.2401 53.9373 44.83 54.9533 46.7832C55.0161 46.9004 55.0789 47.0176 55.1142 47.1426C55.1613 47.3145 55.2632 47.3106 55.3809 47.2403C55.5496 47.1387 55.7183 47.0332 55.8752 46.9121C56.6599 46.2949 57.2679 45.5254 57.7544 44.662C57.7661 44.6386 57.7857 44.6191 57.8446 44.623C57.264 45.7793 56.6795 46.9395 56.0714 48.1504C56.2597 48.084 56.3813 48.0254 56.5108 47.9981C57.0953 47.8653 57.5935 48.2481 57.6092 48.8458C57.6328 49.5997 57.4248 50.2951 57.0639 50.9474C55.8792 53.0686 54.6865 55.1819 53.4979 57.3031C53.1683 57.8891 53.0075 58.5219 52.9918 59.1938C52.98 59.8696 53.0467 60.5376 53.2193 61.1939C53.4469 62.065 53.9647 62.6666 54.8082 63.0025C55.7693 63.3854 56.7618 63.5963 57.7975 63.6197C58.1271 63.6276 58.437 63.5338 58.6527 63.2838C58.9117 62.983 59.1588 62.6705 59.3628 62.3345C60.0729 61.1704 60.7594 59.9868 61.4656 58.8188C62.1639 57.6625 63.1172 56.7172 64.0862 55.7952C64.7256 55.1898 65.3886 54.6077 66.0751 54.053C66.895 53.3889 67.8523 52.9787 68.8683 52.6897C69.8295 52.4123 70.8024 52.1584 71.7282 51.7873C73.317 51.1505 74.5646 50.0724 75.2982 48.5137C75.8395 47.3692 76.2515 46.166 76.7575 45.0058C77.0479 44.3378 77.397 43.6893 77.754 43.0526C77.8717 42.8417 78.0757 42.6698 78.2679 42.5174C78.4288 42.3885 78.4405 42.2674 78.3738 42.0994C78.2091 41.6854 77.9266 41.3611 77.5971 41.076C77.5539 41.0408 77.5068 41.0057 77.4912 40.9197C77.5932 40.9705 77.6991 41.0252 77.8011 41.076C78.2287 41.2908 78.6053 41.5682 78.8995 41.9432C79.0015 42.076 79.131 42.0994 79.2408 42.0252C79.3036 41.9823 79.331 41.8377 79.3193 41.744C79.1859 40.8142 78.7779 39.9978 78.2012 39.2712C77.8246 38.7986 77.3931 38.3649 76.9851 37.9079C77.6991 38.4392 78.3934 38.99 78.9976 39.6462C79.6017 40.2986 80.0647 41.0447 80.4099 41.869C80.4452 41.8612 80.4805 41.8494 80.5158 41.8416C80.5433 41.7518 80.606 41.658 80.5943 41.5721C80.5158 41.0017 80.457 40.4236 80.3157 39.865C80.2098 39.4431 80.0019 39.0486 79.8371 38.6423C79.8254 38.611 79.8175 38.5759 79.8175 38.5368C80.3157 39.2439 80.6727 40.0134 80.8846 40.8494C80.9513 41.1111 80.9827 41.3807 81.0454 41.6463C81.0572 41.701 81.1278 41.783 81.1827 41.7869C81.8222 41.869 82.4695 41.9198 83.1089 42.0174C83.9838 42.1541 84.8625 42.287 85.7374 42.4276C85.4549 39.8767 84.9449 37.3962 84.2231 35.0054C83.5052 32.6265 82.5833 30.3373 81.473 28.1615C80.4374 28.3529 79.4095 28.5599 78.3856 28.8021H78.3895Z" fill="white"/>
<path d="M3.73427 38.9363C3.18897 38.1081 2.8869 37.2214 2.67506 36.3034C2.51422 37.1979 2.38082 38.1003 2.2749 39.0144C2.65151 38.9988 3.02813 38.9832 3.40474 38.9793C3.49889 38.9793 3.59304 38.9558 3.73034 38.9363H3.73427Z" fill="white"/>
<path d="M4.50216 37.6514C4.50216 37.6514 4.5414 37.6514 4.56102 37.6514C4.5414 37.9717 4.51002 38.2921 4.49825 38.6163C4.46294 39.5734 4.49824 40.5226 4.83955 41.4328C4.9337 41.6828 5.0867 41.9133 5.21224 42.1555C5.27893 42.2844 5.3927 42.3157 5.50647 42.2375C5.63985 42.1438 5.80854 42.0422 5.86738 41.9055C6.03607 41.5227 6.15769 41.1164 6.30284 40.6984C6.33815 41.1047 6.3813 41.5109 6.40092 41.9172C6.40877 42.1125 6.36953 42.3117 6.36953 42.511C6.36953 42.5735 6.41661 42.6711 6.46761 42.6946C6.91091 42.886 7.35421 43.0891 7.8132 43.2415C8.0682 43.3274 8.35067 43.3118 8.61743 43.3626C9.00189 43.4368 9.24511 43.6712 9.31965 44.0579C9.48834 44.929 10.0297 45.5033 10.8026 45.8822C11.9285 46.4408 13.0622 46.9838 14.1881 47.5424C15.2827 48.0854 16.4478 48.2221 17.6483 48.1635C17.7895 48.1557 17.9268 48.1479 18.068 48.1284C18.3662 48.0932 18.6172 48.1791 18.8762 48.3432C20.3355 49.3003 21.9557 49.7769 23.6897 49.9253C24.2586 49.9761 24.7646 49.812 25.2354 49.5112C25.7807 49.1675 26.2789 49.2964 26.5849 49.855C26.6987 50.062 26.7928 50.2769 26.9302 50.4683C27.7501 51.5972 28.8524 52.1168 30.253 51.9293C30.4609 51.9019 30.6766 51.7652 30.8414 51.6246C31.6103 50.9761 32.1125 50.1362 32.5165 49.23C32.5401 49.1792 32.5597 49.1323 32.595 49.0893C32.3479 50.0972 31.83 50.9566 31.1317 51.7261C31.7045 51.5972 32.187 51.3316 32.6107 50.9527C32.6264 50.9644 32.6382 50.9761 32.6539 50.9839C32.4734 51.2535 32.3165 51.5425 32.1046 51.7847C31.7829 52.1559 31.4299 52.4996 31.0807 52.8434C30.967 52.9567 30.9434 53.027 31.1003 53.1051C31.9359 53.5153 32.5636 54.1559 33.0775 54.9138C33.3404 55.3005 33.5758 55.7028 33.8229 56.0974C33.8072 56.1091 33.7915 56.1208 33.7759 56.1325C33.6425 55.9568 33.5051 55.781 33.3718 55.6052C32.8069 54.8825 32.1909 54.2106 31.3357 53.82C31.0689 53.6989 30.7865 53.6129 30.508 53.5153C30.3236 53.4489 30.1627 53.484 29.9784 53.5621C29.7234 53.6715 29.4487 53.7497 29.1741 53.7809C28.4837 53.8629 28.1267 54.2887 27.9305 54.8981C27.8638 55.1052 27.8089 55.3161 27.7304 55.5193C27.6755 54.9528 27.703 54.402 27.9384 53.8708C28.0757 53.5622 28.0835 53.5465 27.7893 53.359C26.7732 52.7184 25.7297 52.1285 24.5136 51.9605C23.7996 51.859 23.117 52.023 22.4736 52.3082C22.1166 52.4684 21.7714 52.6832 21.4732 52.9332C21.1005 53.2457 21.1908 53.7731 21.6105 54.0153C22.858 54.738 24.0938 55.4802 25.3531 56.1755C25.9023 56.4802 26.4947 56.7146 27.0832 56.9451C28.7975 57.6209 30.5864 58.0584 32.3518 58.574C33.1835 58.8162 34.0151 59.0663 34.8429 59.328C35.702 59.6014 36.4867 59.4139 37.232 58.9803C37.3537 58.91 37.44 58.7381 37.4831 58.5936C37.542 58.3983 37.5498 58.1912 37.5655 57.9842C37.7028 55.738 37.7734 53.4879 37.6518 51.2418C37.6008 50.2769 37.4517 49.3198 37.3968 48.3549C37.3223 47.1361 37.3693 45.9212 37.6361 44.7259C37.7813 44.0852 37.9499 43.4485 38.15 42.8196C38.2559 42.4914 38.4521 42.1945 38.6326 41.8273C38.5502 42.4563 38.4639 43.0149 38.4129 43.5774C38.307 44.7923 38.4364 45.9955 38.6561 47.183C39.1073 49.6167 39.3269 52.0738 39.4132 54.5387C39.4525 55.6794 39.3426 56.824 39.3034 57.9646C39.2995 58.0936 39.2877 58.2225 39.2799 58.3514C39.3034 58.3631 39.323 58.3709 39.3466 58.3826C39.4289 58.2733 39.5192 58.1678 39.5898 58.0506C40.0409 57.3084 40.2253 56.4841 40.2371 55.6364C40.2567 54.4372 40.2685 53.2301 40.1665 52.0387C39.986 49.937 40.0017 47.8432 40.1979 45.7416C40.3352 44.2767 40.4607 42.8079 40.5352 41.3352C40.5823 40.3625 40.5352 39.3898 40.5195 38.4132C40.5195 38.2882 40.4882 38.1632 40.5235 38.0225C40.6255 38.2843 40.7275 38.5499 40.8216 38.8116C41.3081 40.132 41.516 41.5031 41.5395 42.9016C41.5513 43.6477 41.4846 44.3939 41.4807 45.1439C41.4729 46.3744 41.4807 47.6049 41.4885 48.8354C41.4885 49.0659 41.5121 49.2964 41.5238 49.5269C41.5435 49.5269 41.567 49.5269 41.5866 49.5269C41.6101 49.1909 41.6219 48.8549 41.6533 48.519C41.7475 47.5268 41.8377 46.5346 41.9554 45.5462C42.0378 44.8431 42.1907 44.1438 42.2692 43.4368C42.3908 42.3235 42.4889 41.2062 42.5752 40.089C42.638 39.2726 42.6851 38.4483 42.689 37.628C42.689 37.128 42.6066 36.624 42.5321 36.1279C42.434 35.4951 42.0181 35.1396 41.4101 35.0107C40.8059 34.8857 40.1979 34.7568 39.5859 34.6904C38.2128 34.5419 36.8711 34.245 35.5334 33.9208C33.9602 33.538 32.3792 33.1825 30.8061 32.8153C28.7504 32.3348 26.6948 31.8582 24.6391 31.3739C23.4426 31.0926 22.2539 30.7762 21.0495 30.534C20.0099 30.323 18.9585 30.1785 17.9072 30.0301C16.3027 29.8074 14.6903 29.6394 13.0897 29.3933C11.9363 29.2175 10.885 28.7253 9.84927 28.2058C8.97051 27.7643 8.09175 27.3151 7.1973 26.9049C5.09455 30.7059 3.57241 34.8623 2.74072 39.2687C3.05849 40.2179 3.39979 41.1554 4.10202 41.9367C4.01179 40.4796 4.18832 39.0538 4.51393 37.6436L4.50216 37.6514Z" fill="white"/>
<path d="M15.3928 47.3071C16.3186 47.5297 17.2523 47.7444 18.186 47.9436C18.9824 48.1154 19.7866 48.2599 20.5869 48.4122C20.6457 48.4239 20.7281 48.4122 20.7713 48.381C20.9674 48.2287 21.1518 48.0607 21.3597 47.8811C21.3166 47.8577 21.297 47.846 21.2773 47.8382C20.3201 47.5843 19.3982 47.2485 18.5194 46.7955C18.4449 46.7564 18.3468 46.7486 18.2644 46.7603C17.0404 46.9361 15.8283 46.8814 14.6317 46.5612C14.5258 46.5339 14.412 46.5221 14.259 46.4987C14.5846 46.9165 14.9416 47.1938 15.4006 47.3032L15.3928 47.3071Z" fill="white"/>
<circle cx="44" cy="44" r="42" stroke="#0A3272" stroke-width="3"/>
</svg>
