<svg width="16" height="16" viewBox="0 0 16 16" fill="none" xmlns="http://www.w3.org/2000/svg">
<g clip-path="url(#clip0_5313_10382)">
<path d="M9.19212 15.4999C9.32627 15.5023 9.45578 15.4508 9.55151 15.3567C9.64724 15.2627 9.70117 15.1342 9.70117 15C9.70117 14.7428 9.58434 14.5362 9.49689 14.4029C9.44562 14.3248 9.3691 14.2234 9.30262 14.1353C9.26795 14.0893 9.23601 14.047 9.2118 14.0134C9.03739 13.7718 8.89334 13.5158 8.87668 13.1484C8.87478 13.1066 8.89297 13.033 8.96969 12.9425L9.45977 12.3643C9.62968 12.1639 9.92575 12.1291 10.1374 12.2848L10.9808 12.9051C11.472 13.2663 12.1642 13.1536 12.5153 12.6551C12.8565 12.1708 12.7476 11.5026 12.2704 11.1516L11.5187 10.5988L12.3186 10.0105C12.4044 9.94738 12.5082 9.91333 12.6148 9.91333H14.4073C15.0108 9.91333 15.5 9.42409 15.5 8.8206C15.5 8.2171 15.0108 7.72787 14.4073 7.72787H13.1963C13.2376 6.9876 13.3558 6.2539 13.5489 5.5392C13.6963 4.99346 13.414 4.3934 12.848 4.20063C12.2839 4.00849 11.644 4.31027 11.478 4.91584C11.2183 5.86274 11.0678 6.83742 11.0294 7.82008C11.0227 7.99044 10.9467 8.13924 10.8294 8.23191L8.52253 10.0532C8.53308 9.8184 8.53907 9.60246 8.53907 9.41333C8.53907 8.83 8.3429 7.54793 8.13033 6.51001C8.08539 6.29057 8.1815 6.0256 8.41144 5.83334C9.52638 4.90117 10.1992 3.49553 10.1992 1.98126V1.58008C10.1992 0.983566 9.71562 0.5 9.11911 0.5C8.5226 0.5 8.03904 0.983567 8.03904 1.58008V1.98126C8.03904 2.64001 7.81376 3.25997 7.42561 3.7483C7.22421 3.04311 7.02098 2.37285 6.84544 1.81568C6.66274 1.23577 6.03949 0.927994 5.47033 1.12186C4.90951 1.31287 4.60998 1.91664 4.78641 2.47657C5.07848 3.40347 5.44989 4.6543 5.75346 5.83619C6.08773 7.1376 6.29881 8.20569 6.29881 8.70547C6.29881 8.7774 6.29767 8.8569 6.29543 8.94346L5.19222 8.87568C4.66754 8.84344 4.17055 8.61587 3.79584 8.23299C3.73202 8.16778 3.73202 8.05769 3.79584 7.99249C4.14723 7.63343 4.14723 7.05937 3.79584 6.70032L3.55556 6.4548C3.2003 6.0918 2.61605 6.0918 2.26079 6.4548C1.79323 6.93256 1.57053 7.56319 1.58887 8.18371C1.59818 8.49871 1.49945 8.686 1.39383 8.75346L1.21781 8.86587C0.717827 9.18519 0.56539 9.84595 0.874957 10.352L1.30149 10.0911L0.874957 10.352C1.19313 10.8722 1.87634 11.0298 2.39022 10.7016L2.68022 10.5164L2.41109 10.095L2.68022 10.5164C2.82208 10.4258 3.04887 10.4168 3.28115 10.5435C3.82655 10.8411 4.43311 11.0185 5.06126 11.0571L5.06125 11.0571L5.0664 11.0574C5.13759 11.061 5.20351 11.0637 5.26621 11.0663C5.39034 11.0713 5.50187 11.0758 5.6167 11.0863C5.7842 11.1016 5.89922 11.1259 5.97705 11.1586C6.04423 11.1869 6.06526 11.213 6.07792 11.2366C6.09511 11.2688 6.12812 11.359 6.1087 11.5656C6.05918 12.0925 5.76579 12.6114 5.41114 13.1773C5.38591 13.2176 5.36023 13.2583 5.33431 13.2994C5.18908 13.5298 5.03674 13.7715 4.91734 14.0013C4.77815 14.2692 4.64883 14.5836 4.64079 14.9143C4.63755 15.0474 4.68754 15.1763 4.77967 15.2725C4.8718 15.3686 4.99846 15.424 5.13159 15.4264L9.19212 15.4999ZM11.2997 10.4377C11.2998 10.4378 11.3 10.4379 11.3001 10.438L11.2997 10.4377ZM11.3001 10.7596C11.3 10.7597 11.2998 10.7598 11.2997 10.7599L11.3001 10.7596Z" stroke="black" stroke-linecap="round" stroke-linejoin="round"/>
</g>
<defs>
<clipPath id="clip0_5313_10382">
<rect width="16" height="16" fill="white"/>
</clipPath>
</defs>
</svg>
