<svg width="38" height="49" viewBox="0 0 38 49" fill="none" xmlns="http://www.w3.org/2000/svg">
<g filter="url(#filter0_d_6086_11806)">
<path d="M17.3556 43.8133C5.24711 26.2524 3 24.4516 3 18C3 9.16267 10.1627 2 19 2C27.8373 2 35 9.16267 35 18C35 24.4516 32.7529 26.2489 20.6444 43.8062C20.4606 44.071 20.2154 44.2875 19.9299 44.4373C19.6444 44.587 19.3269 44.6656 19.0045 44.6663C18.6821 44.667 18.3643 44.5898 18.0781 44.4413C17.792 44.2928 17.5459 44.0774 17.3609 43.8133L17.3573 43.8062L17.3556 43.8133Z" fill="#CC2027"/>
<path d="M17.862 11L15.4818 13.3803L13.8802 12.8399C13.8168 12.8184 13.7505 12.8065 13.6836 12.8047C13.5946 12.8025 13.5061 12.8181 13.4233 12.8506C13.3404 12.883 13.2649 12.9318 13.2012 12.9939C13.1375 13.0561 13.0869 13.1303 13.0523 13.2123C13.0178 13.2943 13 13.3824 13 13.4714V14.4714C13 15.4841 13.2606 16.6886 13.8112 17.7539L12.4635 17.4844C12.4202 17.4757 12.3762 17.4714 12.332 17.4714C12.1554 17.4718 11.9862 17.5422 11.8615 17.6671C11.7367 17.7921 11.6667 17.9615 11.6667 18.1381V22.1381C11.6667 23.3248 12.7913 24.1381 14 24.1381C14.6286 24.1381 15.2299 23.9145 15.6667 23.5365C16.1034 23.9145 16.7047 24.1381 17.3333 24.1381C17.9619 24.1381 18.5632 23.9145 19 23.5365C19.4367 23.9145 20.0381 24.1381 20.6667 24.1381C21.2952 24.1381 21.8966 23.9145 22.3333 23.5365C22.7701 23.9145 23.3714 24.1381 24 24.1381C25.2087 24.1381 26.3333 23.3248 26.3333 22.1381V20.8047C26.3333 20.6506 26.2798 20.5012 26.182 20.382C26.0842 20.2628 25.9481 20.1812 25.7969 20.1511L24.1146 19.8151L24.9648 17.2839C25.021 17.1166 25.0086 16.9338 24.9303 16.7756C24.8519 16.6175 24.714 16.4968 24.5469 16.4401L16.8906 13.8568L18.8047 11.9428L17.862 11ZM14.3333 14.3998L23.4896 17.4896L22.7969 19.5508L15.6823 18.1276C14.8513 17.2171 14.3333 15.5633 14.3333 14.4714V14.3998ZM13 18.9506L25 21.3516V22.1381C25 22.4247 24.6326 22.8047 24 22.8047C23.3674 22.8047 23 22.4247 23 22.1381H21.6667C21.6667 22.4247 21.2993 22.8047 20.6667 22.8047C20.034 22.8047 19.6667 22.4247 19.6667 22.1381H18.3333C18.3333 22.4247 17.966 22.8047 17.3333 22.8047C16.7007 22.8047 16.3333 22.4247 16.3333 22.1381H15C15 22.4247 14.6326 22.8047 14 22.8047C13.3674 22.8047 13 22.4247 13 22.1381V18.9506Z" fill="white"/>
</g>
<defs>
<filter id="filter0_d_6086_11806" x="0" y="0" width="38" height="48.6663" filterUnits="userSpaceOnUse" color-interpolation-filters="sRGB">
<feFlood flood-opacity="0" result="BackgroundImageFix"/>
<feColorMatrix in="SourceAlpha" type="matrix" values="0 0 0 0 0 0 0 0 0 0 0 0 0 0 0 0 0 0 127 0" result="hardAlpha"/>
<feOffset dy="1"/>
<feGaussianBlur stdDeviation="1.5"/>
<feComposite in2="hardAlpha" operator="out"/>
<feColorMatrix type="matrix" values="0 0 0 0 0 0 0 0 0 0 0 0 0 0 0 0 0 0 0.1 0"/>
<feBlend mode="normal" in2="BackgroundImageFix" result="effect1_dropShadow_6086_11806"/>
<feBlend mode="normal" in="SourceGraphic" in2="effect1_dropShadow_6086_11806" result="shape"/>
</filter>
</defs>
</svg>
