<svg width="20" height="19" viewBox="0 0 20 19" fill="none" xmlns="http://www.w3.org/2000/svg">
<path d="M7.33325 10.4329V13.8955" stroke="black" stroke-width="1.5" stroke-linecap="round" stroke-linejoin="round"/>
<path d="M12.6665 10.4329V13.8955" stroke="black" stroke-width="1.5" stroke-linecap="round" stroke-linejoin="round"/>
<path d="M5.20068 12.1642H14.8007" stroke="black" stroke-width="1.5" stroke-linecap="round" stroke-linejoin="round"/>
<path d="M2 6.37317H18" stroke="black" stroke-width="1.5" stroke-linecap="round" stroke-linejoin="round"/>
<path d="M16.4 2.39929H3.6C2.95679 2.39929 2.35313 2.67632 1.91782 3.14737C1.48434 3.61642 1.25 4.2408 1.25 4.88064V15.2687C1.25 15.9085 1.48434 16.5329 1.91782 17.002C2.35313 17.473 2.95679 17.75 3.6 17.75H16.4C17.0432 17.75 17.6469 17.473 18.0822 17.002C18.5157 16.5329 18.75 15.9085 18.75 15.2687V4.88064C18.75 4.2408 18.5157 3.61642 18.0822 3.14737C17.6469 2.67632 17.0432 2.39929 16.4 2.39929Z" stroke="black" stroke-width="1.5" stroke-linecap="round" stroke-linejoin="round"/>
<path d="M6.26697 1V3.14925" stroke="black" stroke-width="1.5" stroke-linecap="round" stroke-linejoin="round"/>
<path d="M13.7328 1V3.14925" stroke="black" stroke-width="1.5" stroke-linecap="round" stroke-linejoin="round"/>
</svg>
