<svg width="17" height="16" viewBox="0 0 17 16" fill="none" xmlns="http://www.w3.org/2000/svg">
<path d="M15.1769 8.22001C13.4548 7.92169 11.8671 7.09765 10.6319 5.86101C9.39598 4.62695 8.57198 3.04079 8.27295 1.32001" stroke="black" stroke-linecap="round" stroke-linejoin="round"/>
<path d="M5.214 11.279L1 11.881L4.612 15.492L5.214 11.279Z" stroke="black" stroke-linecap="round" stroke-linejoin="round"/>
<path d="M15.447 1.04501C15.447 1.04501 10.03 -0.760987 7.01995 2.24901C3.40795 5.86101 5.21395 11.279 5.21395 11.279C5.21395 11.279 10.632 13.079 14.243 9.47301C17.291 6.42501 15.447 1.04501 15.447 1.04501Z" stroke="black" stroke-linecap="round" stroke-linejoin="round"/>
<path d="M12.5 4C13.0523 4 13.5 3.55228 13.5 3C13.5 2.44772 13.0523 2 12.5 2C11.9477 2 11.5 2.44772 11.5 3C11.5 3.55228 11.9477 4 12.5 4Z" fill="black"/>
</svg>
