<svg width="18" height="18" viewBox="0 0 18 18" fill="none" xmlns="http://www.w3.org/2000/svg">
<path d="M12.5 4.5H16.5" stroke="black" stroke-width="1.5" stroke-linecap="round" stroke-linejoin="round"/>
<path d="M1.5 4.5H3.5" stroke="black" stroke-width="1.5" stroke-linecap="round" stroke-linejoin="round"/>
<path d="M5.5 13.5H1.5" stroke="black" stroke-width="1.5" stroke-linecap="round" stroke-linejoin="round"/>
<path d="M16.5 13.5H14.5" stroke="black" stroke-width="1.5" stroke-linecap="round" stroke-linejoin="round"/>
<path d="M6.5 7.5C8.15685 7.5 9.5 6.15685 9.5 4.5C9.5 2.84315 8.15685 1.5 6.5 1.5C4.84315 1.5 3.5 2.84315 3.5 4.5C3.5 6.15685 4.84315 7.5 6.5 7.5Z" stroke="black" stroke-width="1.5" stroke-linecap="round" stroke-linejoin="round"/>
<path d="M11.5 16.5C13.1569 16.5 14.5 15.1569 14.5 13.5C14.5 11.8431 13.1569 10.5 11.5 10.5C9.84315 10.5 8.5 11.8431 8.5 13.5C8.5 15.1569 9.84315 16.5 11.5 16.5Z" stroke="black" stroke-width="1.5" stroke-linecap="round" stroke-linejoin="round"/>
</svg>
