<svg width="24" height="25" viewBox="0 0 24 25" fill="none" xmlns="http://www.w3.org/2000/svg">
<path d="M1 13.5V19.5C1 20.0304 1.21071 20.5391 1.58579 20.9142C1.96086 21.2893 2.46957 21.5 3 21.5H21C21.5304 21.5 22.0391 21.2893 22.4142 20.9142C22.7893 20.5391 23 20.0304 23 19.5V13.5" stroke="black" stroke-width="2" stroke-linecap="round" stroke-linejoin="round"/>
<path d="M23 8.5V5.5C23 4.96957 22.7893 4.46086 22.4142 4.08579C22.0391 3.71071 21.5304 3.5 21 3.5H3C2.46957 3.5 1.96086 3.71071 1.58579 4.08579C1.21071 4.46086 1 4.96957 1 5.5V8.5L12 14.5L23 8.5Z" stroke="black" stroke-width="2" stroke-linecap="round" stroke-linejoin="round"/>
</svg>
