<svg width="18" height="18" viewBox="0 0 18 18" fill="none" xmlns="http://www.w3.org/2000/svg">
<path d="M5.82553 13.9524C5.70046 14.9071 5.77053 15.652 6.08057 15.9633C7.08232 16.9691 10.8347 16.9461 13.6821 15.0001C16.5296 13.0542 18.1856 8.32129 14.5809 5.90514C13.832 5.40316 12.0697 4.57499 10.233 5.90514M5.82553 13.9524C6.10457 11.8223 7.35493 8.64734 9.07892 6.91092C9.48889 6.49801 9.87211 6.16646 10.233 5.90514M5.82553 13.9524C3.62101 11.9754 0.491893 8.12547 1.58168 4.90026C2.08168 3.42052 3.61856 1.38 5.82553 1.38C8.58425 1.38 10.3811 2.38396 10.233 5.90514M10.233 5.90514C9.68338 5.73781 8.08406 4.90026 6.08333 5.40316C4.89694 5.70137 3.4278 7.41474 3.92798 11.9408M13.5845 9.07727C14.4328 10.0713 14.0052 11.8291 12.6293 13.0033C11.2534 14.1775 9.45034 14.3235 8.60197 13.3295C7.75361 12.3354 8.18125 10.5777 9.55713 9.40344C10.933 8.22923 12.7361 8.0832 13.5845 9.07727Z" stroke="black" stroke-linecap="round"/>
</svg>
