<svg width="48" height="49" viewBox="0 0 48 49" fill="none" xmlns="http://www.w3.org/2000/svg">
<g clip-path="url(#clip0_3488_21428)">
<path d="M12 38.5C14.2091 38.5 16 36.7091 16 34.5C16 32.2909 14.2091 30.5 12 30.5C9.79086 30.5 8 32.2909 8 34.5C8 36.7091 9.79086 38.5 12 38.5Z" stroke="#295EC5" stroke-width="2" stroke-linecap="round" stroke-linejoin="round"/>
<path d="M35 2.5L16.6 20.9C13.9116 20.2126 11.0708 20.4393 8.52548 21.5444C5.98011 22.6494 3.87481 24.57 2.54134 27.0035C1.20787 29.437 0.722032 32.245 1.1604 34.9851C1.59877 37.7251 2.93641 40.2414 4.96254 42.1374C6.98867 44.0335 9.58809 45.2014 12.3512 45.4572C15.1143 45.713 17.8839 45.0421 20.2237 43.5502C22.5634 42.0584 24.3403 39.8304 25.2742 37.2174C26.2081 34.6044 26.246 31.7549 25.382 29.118L29 25.5V19.5H35V13.5H41L44 10.5V2.5H35Z" stroke="#295EC5" stroke-width="2" stroke-linecap="round" stroke-linejoin="round"/>
<path d="M32 39L36 43L47 32" stroke="#295EC5" stroke-width="2" stroke-linecap="round" stroke-linejoin="round"/>
</g>
<defs>
<clipPath id="clip0_3488_21428">
<rect width="48" height="48" fill="white" transform="translate(0 0.5)"/>
</clipPath>
</defs>
</svg>
