<svg width="43" height="42" viewBox="0 0 43 42" fill="none" xmlns="http://www.w3.org/2000/svg">
<path d="M20.2216 21.7692C19.5261 21.8134 13.3635 22.3618 13.3635 22.3618L13.9135 25.5011C13.9135 25.5011 16.9866 25.9609 21.6045 24.5902C26.2224 23.2195 29.5705 24.1039 31.1233 25.2888C31.3578 24.7317 31.932 22.6978 31.932 22.6978L29.5624 22.2379L28.4787 20.9468C28.4787 20.9468 28.4706 20.3278 27.9611 20.2924C27.6862 19.868 25.0416 16.7287 25.0416 16.7287C25.0416 16.7287 26.093 16.3484 26.2062 15.411C26.4407 15.3668 27.023 15.243 27.023 14.8981C27.023 14.5532 26.3194 14.4294 26.3194 14.4294C26.3194 14.4294 26.1253 12.988 24.9607 12.988C23.7962 12.988 23.4484 14.3056 23.5293 14.7301C23.3756 14.5621 22.5912 13.6247 22.5912 13.6247C22.5912 13.6247 22.6639 13.0322 22.0817 12.988C21.6935 12.5193 20.9899 11.6261 20.9899 11.6261C20.9899 11.6261 20.5612 10.3969 19.979 9.67178C19.3967 8.94664 19.1217 8.61059 19.1217 8.61059C19.1217 8.61059 18.968 8.52216 18.8467 8.61059C18.7254 8.69902 18.1512 9.20309 17.9571 9.50376C17.8763 9.62756 17.9409 9.69835 18.0542 9.82215C18.1674 9.94596 19.1055 11.0955 19.2187 11.2193C19.332 11.3431 20.3833 12.0241 20.4642 12.1125C20.5451 12.2009 21.4751 13.3417 21.4751 13.3417C21.4751 13.3417 20.3914 14.0668 20.3914 15.0396C20.3914 16.0212 21.7177 16.9497 21.7177 16.9497C21.7177 16.9497 21.7582 17.4184 21.5641 17.9667C21.37 18.5149 20.4804 19.8768 20.2135 21.7516L20.2216 21.7692ZM27.0796 20.2482C27.0796 20.2482 25.7937 20.1687 25.3247 18.1701L27.0796 20.2482ZM24.7505 20.2482C25.8827 21.8223 28.0905 21.389 28.0905 21.389L28.5596 22.1495C26.9664 21.7693 24.985 21.7339 24.3218 21.7781C24.2814 21.0972 24.7505 20.2482 24.7505 20.2482ZM21.6692 15.1103C21.281 14.6417 22.0978 14.1288 22.0978 14.1288C22.0978 14.1288 22.9551 15.1899 23.4646 15.8266C22.6073 15.9593 22.0655 15.579 21.6773 15.1103H21.6692Z" fill="white"/>
<path d="M26.1737 25.2937C21.4821 25.2937 16.8842 27.8717 13.0044 27.8717C9.12468 27.8717 7.69614 27.2146 6.26758 26.2238C6.26758 26.2238 9.48378 30.7226 14.1754 30.7226C18.867 30.7226 24.0738 28.2154 27.8989 28.2154C31.724 28.2154 33.4102 28.6805 34.6826 29.9341C33.1526 28.1548 30.8575 25.3038 26.1581 25.3038L26.1737 25.2937Z" fill="white"/>
<circle cx="21.5" cy="21" r="20" stroke="white" stroke-width="2"/>
</svg>
