<svg width="43" height="42" viewBox="0 0 43 42" fill="none" xmlns="http://www.w3.org/2000/svg">
<path d="M17.935 18.0585L19.1462 15.9154L19.3228 15.9L20.1047 15.832L20.5672 15.7917L21.0013 17.4703L19.5234 19.5664C19.0291 19.6295 18.5431 19.6919 18.0732 19.7429L17.9266 18.0592L17.935 18.0585ZM11.0369 22.7044L10.5745 22.7446L10.2465 22.7732L10.0616 22.7893L9.9809 21.8628L10.8553 21.7867L11.0369 22.7044ZM23.2244 17.8992L23.8156 18.8515C22.8666 19.0445 21.8168 19.2463 20.6785 19.4056L21.6437 18.0368L23.216 17.8999L23.2244 17.8992ZM22.5346 15.6204L22.8915 16.9946L21.7312 17.0956L21.3743 15.7214L22.5346 15.6204ZM28.6596 18.8312L33.1242 18.4425C32.9647 18.8479 32.7463 19.2583 32.469 19.674C32.3951 19.7005 32.3203 19.7171 32.2379 19.7443C32.1144 19.7852 31.9732 19.8175 31.8329 19.8598C31.7749 19.8749 31.7253 19.8893 31.6673 19.9044C30.8479 20.1263 29.7444 20.393 28.4331 20.6076C28.2742 20.6314 28.1153 20.6553 27.9564 20.6792C27.9396 20.6807 27.9228 20.6821 27.906 20.6836C27.7546 20.6968 27.605 20.7298 27.4545 20.753C27.4293 20.7552 27.3957 20.7581 27.3705 20.7603C27.2275 20.7727 27.0855 20.7952 26.9434 20.8176C26.9013 20.8212 26.8593 20.8249 26.8257 20.8278C26.6827 20.8403 26.5398 20.8527 26.3977 20.8751C26.3557 20.8788 26.3137 20.8825 26.2716 20.8861C26.0866 20.9022 25.8933 20.9191 25.7083 20.9352L12.3901 22.0947L11.9949 22.1291L11.7511 22.1503L11.5788 21.2418C11.6797 21.233 11.789 21.2235 11.9151 21.2125C12.0328 21.2023 12.1674 21.1906 12.3103 21.1781C13.5228 21.0926 15.5592 20.9354 17.9242 20.6593L18.1849 20.6366C18.3951 20.6183 18.6128 20.5893 18.8305 20.5603C19.0155 20.5442 19.208 20.5174 19.4005 20.4906C19.7772 20.4377 20.1547 20.3948 20.5397 20.3412C20.5733 20.3383 20.6069 20.3353 20.6406 20.3324C21.8293 20.1687 22.9212 19.9632 23.9206 19.7658C24.2207 19.7096 24.5115 19.6441 24.7939 19.5794C24.9351 19.547 25.0763 19.5146 25.2175 19.4823C25.4756 19.4297 25.7243 19.3678 25.9655 19.3167C27.1288 19.0548 28.0432 18.8548 28.6907 18.7984L28.6596 18.8312ZM11.9836 23.5555L11.9008 23.0909L12.4473 23.0433L25.7655 21.8838C25.9504 21.8677 26.1438 21.8508 26.3288 21.8347C26.3708 21.8311 26.4213 21.8267 26.4633 21.823C26.6231 21.8091 26.7744 21.7959 26.9333 21.7721C26.9585 21.7699 26.9753 21.7684 27.0006 21.7662C28.8787 21.5425 30.4412 21.1956 31.6178 20.8924C31.1024 21.5897 30.4595 22.3785 29.7134 22.9554L12.1492 24.4846L11.9928 23.5647L11.9836 23.5555ZM9.79751 23.7458L9.29249 24.8538L9.99341 25.3147L10.7392 23.6638L11.1932 23.6243L11.5143 25.4633L29.9866 23.855L30.0663 23.7979C31.2422 22.9026 32.1612 21.5879 32.772 20.7216C32.8173 20.6575 32.8457 20.5948 32.864 20.5129L32.9312 20.5071L33.0049 20.3801C33.5478 19.6101 33.9116 18.8257 34.0904 18.0573L34.2375 17.4121L28.5706 17.9055C27.8811 17.9655 26.9423 18.1777 25.7622 18.441C25.4134 18.5216 25.0478 18.6036 24.6654 18.6871L23.7592 17.2302L23.3267 15.5715L24.0246 15.5108L23.9439 14.5842L23.0863 14.6589L20.3285 14.899L20.0258 14.9253L20.0189 14.8457L19.6761 14.0223L20.3319 13.9652L20.2512 13.0387L19.3011 13.1214L18.3142 10.7381L17.6114 11.1305L18.4696 13.2039L17.9063 13.2529L17.9869 14.1794L18.8446 14.1047L19.2195 15.0056L16.8989 15.2076L16.9796 16.1341L18.1399 16.0331L17.127 17.8277L17.304 19.8601C13.7712 20.248 11.0812 20.3918 11.0476 20.3947L10.5918 20.4143L10.6839 20.8881L9.12003 21.0243L9.3629 23.8138L9.80852 23.775L9.79751 23.7458Z" fill="white"/>
<path d="M25.9305 23.8503C21.2389 23.8503 16.641 26.4284 12.7613 26.4284C8.88152 26.4284 7.45297 25.7712 6.02441 24.7805C6.02441 24.7805 9.24061 29.2793 13.9322 29.2793C18.6238 29.2793 23.8306 26.772 27.6557 26.772C31.4808 26.772 33.167 27.2371 34.4394 28.4907C32.9094 26.7114 30.6143 23.8605 25.9149 23.8605L25.9305 23.8503Z" fill="white"/>
<circle cx="21.5" cy="21" r="20" stroke="white" stroke-width="2"/>
</svg>
