<svg width="43" height="42" viewBox="0 0 43 42" fill="none" xmlns="http://www.w3.org/2000/svg">
<circle cx="21.5" cy="21" r="20" stroke="white" stroke-width="2"/>
<path d="M27.1981 27.3391C22.5065 27.3391 17.9086 29.9171 14.0288 29.9171C10.1491 29.9171 8.72055 29.26 7.29199 28.2692C7.29199 28.2692 10.5082 32.7681 15.1998 32.7681C19.8914 32.7681 25.0982 30.2608 28.9233 30.2608C32.7484 30.2608 34.4346 30.7259 35.707 31.9795C34.177 30.2002 31.8819 27.3492 27.1825 27.3492L27.1981 27.3391Z" fill="white"/>
<path d="M31.6615 23.7019C31.7881 23.7019 31.8894 23.5819 31.8894 23.4319V21.1919C31.8894 21.0419 31.7881 20.9219 31.6615 20.9219H30.0074V17.9119H31.2058C31.3324 17.9119 31.4337 17.7919 31.4337 17.6419C31.4337 17.4919 31.3324 17.3719 31.2058 17.3719H28.581V9.50189C28.581 9.35189 28.4798 9.23193 28.3532 9.23193H26.1166C25.99 9.23193 25.8888 9.35189 25.8888 9.50189V11.0219C22.9095 12.4819 20.0062 12.4719 17.027 11.0219V9.50189C17.027 9.35189 16.9257 9.23193 16.7992 9.23193H14.5626C14.436 9.23193 14.3347 9.35189 14.3347 9.50189V17.3719H11.71C11.5834 17.3719 11.4821 17.4919 11.4821 17.6419C11.4821 17.7919 11.5834 17.9119 11.71 17.9119H12.9084V20.9219H11.2542C11.1276 20.9219 11.0264 21.0419 11.0264 21.1919V23.4319C11.0264 23.5819 11.1276 23.7019 11.2542 23.7019H14.3263V24.8419C14.2841 24.8419 14.2335 24.8319 14.1913 24.8319C13.8959 24.8319 13.6174 25.0019 13.3557 25.1619C13.1363 25.3019 12.9169 25.4319 12.7312 25.4319C12.5455 25.4319 12.3345 25.3019 12.1067 25.1619C11.845 25.0019 11.5665 24.8319 11.2711 24.8319C11.1445 24.8319 11.0432 24.9519 11.0432 25.1019C11.0432 25.2519 11.1445 25.3719 11.2711 25.3719C11.4568 25.3719 11.6678 25.5019 11.8957 25.6419C12.1573 25.8019 12.4358 25.9719 12.7312 25.9719C13.0266 25.9719 13.3051 25.8019 13.5667 25.6419C13.7861 25.5019 14.0056 25.3719 14.1913 25.3719C14.2335 25.3719 14.2841 25.3719 14.3263 25.3919V30.062H17.0186V25.3819C17.0186 25.3819 17.0692 25.3719 17.0945 25.3719C17.2802 25.3719 17.4912 25.5019 17.7191 25.6419C17.9807 25.8019 18.2592 25.9719 18.5546 25.9719C18.85 25.9719 19.1285 25.8019 19.3902 25.6419C19.6096 25.5019 19.829 25.3719 20.0147 25.3719C20.2004 25.3719 20.4114 25.5019 20.6392 25.6419C20.9009 25.8019 21.1794 25.9719 21.4748 25.9719C21.7702 25.9719 22.0487 25.8019 22.3103 25.6419C22.5297 25.5019 22.7492 25.3719 22.9348 25.3719C23.1205 25.3719 23.3315 25.5019 23.5594 25.6419C23.821 25.8019 24.0995 25.9719 24.3949 25.9719C24.6903 25.9719 24.9688 25.8019 25.2305 25.6419C25.4499 25.5019 25.6693 25.3719 25.855 25.3719C26.0407 25.3719 26.2517 25.5019 26.4795 25.6419C26.7412 25.8019 27.0197 25.9719 27.3151 25.9719C27.6105 25.9719 27.889 25.8019 28.1506 25.6419C28.37 25.5019 28.5895 25.3719 28.7752 25.3719C28.9608 25.3719 29.1718 25.5019 29.3997 25.6419C29.6613 25.8019 29.9398 25.9719 30.2352 25.9719C30.5306 25.9719 30.8007 25.8019 31.0708 25.6419C31.2902 25.5019 31.5096 25.3719 31.6953 25.3719C31.8219 25.3719 31.9232 25.2519 31.9232 25.1019C31.9232 24.9519 31.8219 24.8319 31.6953 24.8319C31.3999 24.8319 31.1214 25.0019 30.8598 25.1619C30.6403 25.3019 30.4209 25.4319 30.2352 25.4319C30.0495 25.4319 29.8386 25.3019 29.6107 25.1619C29.3491 25.0019 29.0705 24.8319 28.7752 24.8319C28.7161 24.8319 28.6654 24.8319 28.6064 24.8519V23.7019H31.6869H31.6615ZM28.581 17.9119H29.5516V20.9219H28.581V17.9119ZM28.581 21.4619H31.4337V23.1619H28.581V21.4619ZM17.027 17.9119H18.4365V20.9219H17.027V17.9119ZM13.3642 17.9119H14.3347V20.9219H13.3642V17.9119ZM11.4821 23.1619V21.4619H13.1279H14.3179V22.2419H14.3094V23.1619H11.4652H11.4821ZM25.8888 24.8319C25.8888 24.8319 25.855 24.8319 25.8381 24.8319C25.5427 24.8319 25.2642 25.0019 25.0026 25.1619C24.7832 25.3019 24.5637 25.4319 24.378 25.4319C24.1924 25.4319 23.9814 25.3019 23.7535 25.1619C23.4919 25.0019 23.2134 24.8319 22.918 24.8319C22.6226 24.8319 22.3441 25.0019 22.0824 25.1619C21.863 25.3019 21.6436 25.4319 21.4579 25.4319C21.2722 25.4319 21.0612 25.3019 20.8334 25.1619C20.5717 25.0019 20.2932 24.8319 19.9978 24.8319C19.7024 24.8319 19.4239 25.0019 19.1623 25.1619C18.9428 25.3019 18.7234 25.4319 18.5377 25.4319C18.3521 25.4319 18.1411 25.3019 17.9132 25.1619C17.6516 25.0019 17.373 24.8319 17.0777 24.8319C17.0523 24.8319 17.0355 24.8319 17.0101 24.8319V23.7019H25.8719V24.8319H25.8888ZM25.8888 23.1619H17.027V21.4619H25.8888V23.1619ZM18.8922 20.9219V17.9119H20.2932V20.9219H18.8922ZM20.7489 20.9219V17.9119H22.1584V20.9219H20.7489ZM22.6141 20.9219V17.9119H24.0236V20.9219H22.6141ZM25.8803 20.9219H24.4793V17.9119H25.8803V20.9219ZM25.8803 17.3719H17.0186V13.4519C18.504 14.1519 19.9809 14.5119 21.4495 14.5119C22.918 14.5119 24.3865 14.1619 25.8803 13.4619V17.3719ZM25.8803 12.8819C22.9011 14.3419 19.9978 14.3319 17.0186 12.8819V11.6119C18.504 12.3119 19.9809 12.6719 21.4495 12.6719C22.918 12.6719 24.3865 12.3219 25.8803 11.6219V12.8919V12.8819Z" fill="white"/>
<rect x="25.8975" y="24.562" width="2.70215" height="5" fill="white"/>
</svg>
