<svg width="43" height="42" viewBox="0 0 43 42" fill="none" xmlns="http://www.w3.org/2000/svg">
<path d="M28.2206 25.1965C32.3323 25.1965 34.1348 25.5835 35.5087 26.6454C34.1348 25.385 32.1764 23.4995 28.6103 22.924C28.7565 22.8545 28.8929 22.7751 29.0293 22.6759C30.2277 21.882 31.7672 21.882 32.9559 22.6759L35.1969 24.1644C35.2846 24.224 35.3723 24.2438 35.4697 24.2438C35.6353 24.2438 35.7912 24.1644 35.8887 24.0156C36.0446 23.7774 35.9764 23.4599 35.7425 23.3011L33.5015 21.8125C32.1277 20.8995 30.3836 20.8102 28.9318 21.5446C28.9318 21.4056 28.9416 21.2767 28.9416 21.1377C28.9416 17.3667 25.9308 14.3003 22.2283 14.3003C18.5258 14.3003 15.5151 17.3667 15.5151 21.1377C15.5151 21.356 15.5248 21.5743 15.5443 21.7827C14.0243 20.7904 12.0659 20.8003 10.5459 21.8026L8.30492 23.2911C8.07108 23.4499 8.00286 23.7675 8.15876 24.0057C8.31465 24.2439 8.62645 24.3133 8.86029 24.1545L11.1013 22.666C12.2997 21.8721 13.8392 21.8721 15.0279 22.666C16.5576 23.6782 18.5258 23.6782 20.0555 22.666C21.254 21.8721 22.7935 21.8721 23.9822 22.666C24.0796 22.7354 24.1868 22.785 24.2842 22.8446C19.9678 23.2911 15.7976 24.9087 12.2023 24.9087C8.04185 24.9087 6.50238 24.353 4.97266 23.5095C4.97266 23.5095 8.42184 27.3003 13.4592 27.3003C18.4966 27.3003 24.0893 25.1767 28.1913 25.1767L28.2206 25.1965Z" fill="white"/>
<path d="M22.4747 13.3402C22.7759 13.3402 23.0149 13.1103 23.0149 12.8203V9.25024C23.0149 8.96024 22.7759 8.73022 22.4747 8.73022C22.1735 8.73022 21.9346 8.96024 21.9346 9.25024V12.8203C21.9346 13.1103 22.1735 13.3402 22.4747 13.3402Z" fill="white"/>
<path d="M17.2993 14.3004C17.4031 14.4704 17.5797 14.5604 17.7667 14.5604C17.8602 14.5604 17.9537 14.5404 18.0368 14.4904C18.2964 14.3504 18.3795 14.0304 18.2341 13.7804L16.3852 10.6904C16.2398 10.4404 15.9074 10.3604 15.6477 10.5004C15.388 10.6404 15.3049 10.9604 15.4503 11.2104L17.2993 14.3004Z" fill="white"/>
<path d="M10.8496 16.0202L14.0593 17.8003C14.1424 17.8503 14.2359 17.8703 14.3293 17.8703C14.5163 17.8703 14.6929 17.7803 14.7968 17.6103C14.9422 17.3603 14.8591 17.0502 14.5994 16.9002L11.3897 15.1203C11.1301 14.9803 10.808 15.0603 10.6522 15.3103C10.5068 15.5603 10.5899 15.8702 10.8496 16.0202Z" fill="white"/>
<path d="M30.6148 17.8703C30.7083 17.8703 30.8018 17.8503 30.8849 17.8003L34.0945 16.0202C34.3542 15.8802 34.4373 15.5603 34.2919 15.3103C34.1465 15.0603 33.8141 14.9803 33.5544 15.1203L30.3447 16.9002C30.085 17.0402 30.0019 17.3603 30.1473 17.6103C30.2512 17.7803 30.4278 17.8703 30.6148 17.8703Z" fill="white"/>
<path d="M26.9072 14.4904C26.9903 14.5404 27.0838 14.5604 27.1773 14.5604C27.3642 14.5604 27.5408 14.4704 27.6447 14.3004L29.4936 11.2104C29.6391 10.9604 29.556 10.6504 29.2963 10.5004C29.0366 10.3604 28.7146 10.4404 28.5588 10.6904L26.7098 13.7804C26.5644 14.0304 26.6475 14.3404 26.9072 14.4904Z" fill="white"/>
<path d="M27.6718 26.5647C22.9802 26.5647 18.3822 29.1427 14.5025 29.1427C10.6227 29.1427 9.19418 28.4856 7.76562 27.4948C7.76562 27.4948 10.9818 31.9936 15.6734 31.9936C20.365 31.9936 25.5718 29.4864 29.3969 29.4864C33.222 29.4864 34.9082 29.9515 36.1806 31.2051C34.6506 29.4258 32.3555 26.5748 27.6561 26.5748L27.6718 26.5647Z" fill="white"/>
<circle cx="21.5" cy="21" r="20" stroke="white" stroke-width="2"/>
</svg>
