<svg width="274" height="136" viewBox="0 0 274 136" fill="none" xmlns="http://www.w3.org/2000/svg">
<g clip-path="url(#clip0_5521_21209)">
<path d="M146.29 15.1152H155.735V12.0196H146.29V4.33946H156.06V1.2438L142.898 1.22565L142.871 22.06C144.011 22.1054 145.141 22.2053 146.254 22.3505V15.1243L146.29 15.1152Z" fill="white"/>
<path d="M163.289 28.5146L163.316 1.23474H159.932L159.905 26.7989C160.873 27.3345 161.814 27.9064 162.728 28.5146H163.289Z" fill="white"/>
<path d="M179.21 24.3385C178.758 24.8197 178.233 25.2101 177.618 25.4915C177.003 25.782 176.333 25.9272 175.619 25.9272C174.904 25.9272 174.217 25.7911 173.565 25.5459C172.914 25.2918 172.353 24.9377 171.874 24.4747C171.394 24.0117 171.023 23.467 170.761 22.8225C170.499 22.187 170.363 21.488 170.363 20.7436L166.943 21.4608C167.088 22.5501 167.396 23.5578 167.875 24.502C168.355 25.4461 168.952 26.254 169.693 26.9258C170.426 27.6067 171.267 28.1332 172.235 28.5236C173.194 28.9139 174.235 29.1046 175.329 29.1046C176.56 29.1046 177.699 28.8958 178.758 28.4782C179.816 28.0515 180.739 27.4705 181.517 26.7261C182.304 25.9817 182.91 25.083 183.353 24.0299C183.806 22.9859 184.023 21.8421 184.023 20.6165C184.023 19.4908 183.86 18.4831 183.525 17.6298C183.191 16.7764 182.72 16.0229 182.123 15.3693C181.526 14.7157 180.802 14.1528 179.979 13.6808C179.156 13.2087 178.26 12.782 177.292 12.4008L175.347 11.6382C174.913 11.4657 174.479 11.266 174.036 11.039C173.592 10.803 173.185 10.5397 172.833 10.222C172.471 9.90426 172.172 9.54114 171.937 9.13262C171.693 8.7241 171.575 8.25204 171.575 7.7255C171.575 7.12635 171.711 6.58165 171.973 6.11867C172.235 5.6466 172.588 5.24716 173.022 4.91127C173.457 4.57538 173.945 4.31211 174.488 4.13963C175.031 3.95807 175.574 3.86728 176.125 3.86728C177.157 3.86728 178.016 4.08516 178.695 4.52091C179.382 4.95666 179.97 5.60121 180.477 6.4364L183.182 4.81141C182.44 3.486 181.463 2.46017 180.269 1.75207C179.074 1.04397 177.708 0.680847 176.198 0.680847C175.166 0.680847 174.171 0.844254 173.203 1.16199C172.245 1.4888 171.385 1.95179 170.643 2.55095C169.892 3.15011 169.295 3.88544 168.852 4.75694C168.409 5.62845 168.183 6.60889 168.183 7.71643C168.183 8.66055 168.346 9.48667 168.671 10.2129C168.997 10.9392 169.422 11.5746 169.965 12.1103C170.508 12.6549 171.141 13.127 171.856 13.5265C172.579 13.9259 173.321 14.289 174.09 14.634L175.963 15.4329C176.542 15.678 177.111 15.9503 177.672 16.2499C178.233 16.5586 178.74 16.9035 179.183 17.303C179.626 17.7024 179.979 18.1745 180.241 18.7101C180.504 19.2457 180.639 19.8812 180.639 20.6074C180.639 21.3337 180.513 22.0145 180.26 22.65C180.006 23.2855 179.653 23.8483 179.21 24.3295V24.3385Z" fill="white"/>
<path d="M190.844 15.4509L203.78 15.4691L203.771 28.5598L207.164 28.5689L207.191 1.289H203.798L203.789 12.2827L190.853 12.2736L190.862 1.27084H187.47L187.443 28.5417L190.835 28.5507L190.844 15.4509Z" fill="white"/>
<path d="M211.978 1.28488L211.95 28.5648L215.333 28.5683L215.361 1.28844L211.978 1.28488Z" fill="white"/>
<path d="M243.927 1.32541H240.535L240.517 21.4789L220.135 0L220.108 28.5781L223.491 28.5871L223.51 8.25205L243.891 29.7219L243.927 1.32541Z" fill="white"/>
<path d="M250.911 24.956C252.151 26.2632 253.598 27.2981 255.272 28.0516C256.936 28.8142 258.727 29.1955 260.627 29.1955C262.527 29.1955 264.264 28.8596 265.838 28.1878C267.421 27.516 268.778 26.581 269.918 25.3826C271.057 24.1934 271.944 22.7954 272.577 21.1885C273.201 19.5817 273.518 17.8478 273.518 15.9686V14.8792L262.744 14.8701V17.9839H269.773C269.728 19.0915 269.438 20.1445 268.904 21.1341C268.371 22.1236 267.683 22.986 266.842 23.7213C266.001 24.4567 265.06 25.0286 264.01 25.4553C262.97 25.8819 261.921 26.0907 260.862 26.0907C259.397 26.0907 258.022 25.773 256.737 25.1466C255.453 24.5202 254.331 23.685 253.39 22.6501C252.44 21.6152 251.698 20.426 251.146 19.0824C250.595 17.7479 250.323 16.3589 250.323 14.9427C250.323 13.4176 250.604 11.9923 251.174 10.6397C251.735 9.29613 252.512 8.11596 253.48 7.11737C254.448 6.11877 255.606 5.32897 256.927 4.74797C258.248 4.16696 259.668 3.88554 261.179 3.88554C262.834 3.88554 264.426 4.30313 265.946 5.12017C267.475 5.94628 268.723 7.01751 269.71 8.34292L272.098 6.0643C270.75 4.37576 269.103 3.0685 267.149 2.15161C265.195 1.23471 263.151 0.771729 261.043 0.771729C259.098 0.771729 257.262 1.14393 255.543 1.88834C253.824 2.63275 252.323 3.65859 251.047 4.95676C249.771 6.25494 248.767 7.78007 248.035 9.514C247.293 11.2479 246.931 13.0999 246.931 15.0426C246.931 16.9218 247.284 18.7193 248.007 20.435C248.731 22.1417 249.699 23.6578 250.938 24.956H250.911Z" fill="white"/>
<path d="M11.8441 21.134C11.5908 21.2702 11.3104 21.3609 11.0118 21.4063C10.7133 21.4517 10.4419 21.479 10.2067 21.479C9.04878 21.479 7.96322 21.2338 6.92289 20.7527C5.89161 20.2716 4.92365 19.6724 4.04616 18.9734L3.53957 18.5739L0.5 26.2722C2.03788 27.0439 3.72954 27.6612 5.58403 28.106C7.42948 28.5599 9.22066 28.7778 10.9485 28.7869C12.414 28.7869 13.8524 28.5962 15.2726 28.1968C16.6929 27.8064 17.9504 27.1982 19.0631 26.3721C20.1667 25.555 21.0532 24.5383 21.7317 23.34C22.4102 22.1326 22.7449 20.7073 22.7449 19.0732C22.7449 17.9112 22.564 16.9036 22.2112 16.0321C21.8493 15.1606 21.3518 14.4161 20.7185 13.7897C20.0762 13.1634 19.3164 12.6459 18.4298 12.2283C17.5433 11.8107 16.5753 11.4839 15.5531 11.2479L13.3186 10.7395C13.1287 10.6941 12.9116 10.6396 12.6854 10.5942C12.4502 10.5488 12.2421 10.4762 12.0341 10.3764C11.835 10.2856 11.6632 10.1585 11.5275 10.0223C11.4008 9.87706 11.3285 9.66826 11.3285 9.40499C11.3285 9.11449 11.4008 8.88754 11.5456 8.69689C11.6903 8.51533 11.8622 8.37008 12.0702 8.26114C12.2693 8.15221 12.4954 8.07958 12.7578 8.02511C13.0111 7.97972 13.2463 7.95249 13.4634 7.95249C14.5489 7.95249 15.5621 8.16128 16.512 8.55164C17.4619 8.95108 18.3574 9.4413 19.1988 10.0223L21.8765 3.0412C19.253 1.44344 16.3853 0.644562 13.2644 0.644562C11.7717 0.644562 10.3243 0.862438 8.92213 1.30727C7.51995 1.7521 6.26251 2.39665 5.14981 3.25C4.04616 4.11242 3.15962 5.15641 2.48115 6.41828C1.80267 7.67106 1.46796 9.10541 1.46796 10.7213C1.46796 11.7835 1.65793 12.7276 2.01978 13.5446C2.39068 14.3617 2.90632 15.0788 3.54861 15.678C4.19995 16.2862 4.95079 16.7674 5.81924 17.1396C6.67864 17.5209 7.59232 17.7841 8.56028 17.9566L10.5414 18.3198C10.7585 18.3651 11.0028 18.4196 11.2651 18.465C11.5275 18.5104 11.7717 18.583 11.9888 18.6829C12.2059 18.7827 12.3869 18.9189 12.5316 19.1005C12.6764 19.282 12.7487 19.5271 12.7487 19.8358C12.7487 20.1535 12.6673 20.4077 12.4954 20.6165C12.3235 20.8253 12.1155 20.9887 11.8622 21.1249L11.8441 21.134Z" fill="white"/>
<path d="M57.0848 1.1257H47.0253L43.9496 11.8198C43.7777 12.3917 43.6511 12.9909 43.5515 13.6082C43.452 14.2255 43.3616 14.8337 43.2621 15.442H43.0088L39.2726 1.10754H29.1046L24.6809 28.3693H34.2338L35.4008 16.7311C35.446 16.1773 35.4913 15.6235 35.5365 15.0879C35.5727 14.5432 35.6179 13.9985 35.6631 13.4448H35.9888C36.034 14.0258 36.1155 14.5886 36.224 15.1424C36.3326 15.6962 36.4592 16.259 36.604 16.84L40.123 28.3874H45.8945L49.8297 16.1682C49.9744 15.7325 50.092 15.2876 50.1915 14.8247C50.2911 14.3707 50.3815 13.9168 50.481 13.4538H50.662L51.9827 28.3965H61.5356L57.0848 1.1257Z" fill="white"/>
<path d="M73.6487 25.0194H81.1028L82.0075 28.4237H92.456L82.7854 1.15292H71.8665L62.395 28.4056H72.8526L73.6487 25.0194ZM77.231 10.222H77.5928C77.6924 10.803 77.7828 11.3931 77.8823 11.9832C77.9818 12.5733 78.0994 13.1543 78.2442 13.7353L79.3931 18.5467H75.4308L77.24 10.222H77.231Z" fill="white"/>
<path d="M114.167 19.5998C113.905 19.1912 113.624 18.8644 113.335 18.6193C113.045 18.3742 112.774 18.1563 112.512 17.9657V17.7478C113.425 17.4392 114.212 17.0851 114.873 16.7038C115.533 16.3225 116.085 15.8505 116.519 15.2967C116.953 14.7429 117.27 14.0893 117.478 13.3449C117.686 12.6005 117.786 11.7108 117.786 10.6668C117.786 8.95107 117.487 7.49856 116.89 6.28209C116.293 5.07469 115.47 4.09425 114.439 3.33169C113.407 2.56912 112.204 2.02443 110.838 1.67946C109.472 1.33449 108.016 1.17108 106.478 1.17108H94.5457L94.5186 28.4328H104.171L104.18 19.6905H104.361L108.676 28.451H119.767C119.839 28.4147 119.903 28.3693 119.975 28.3239L114.167 19.5907V19.5998ZM107.844 12.192C107.663 12.4916 107.419 12.7185 107.102 12.8819C106.785 13.0362 106.442 13.1361 106.062 13.1815C105.682 13.2269 105.284 13.2541 104.877 13.2541H104.189V8.62426H104.949C105.383 8.62426 105.79 8.65149 106.17 8.69688C106.559 8.74227 106.894 8.86029 107.183 9.02369C107.473 9.19618 107.699 9.42313 107.871 9.73179C108.034 10.0314 108.124 10.449 108.124 10.9755C108.124 11.4839 108.034 11.8924 107.853 12.1829L107.844 12.192Z" fill="white"/>
<path d="M134.548 9.82258L139.994 10.0858V1.21647L119.242 1.18924V10.0586L124.679 9.80442L124.661 25.7184C127.755 24.2569 131.075 23.1947 134.539 22.5865L134.557 9.82258H134.548Z" fill="white"/>
<path d="M44.1576 63.2022C42.7735 61.8314 41.1361 60.6966 39.2183 59.7979C37.3004 58.8991 35.2198 58.182 32.9944 57.6464L28.1637 56.5297C27.7475 56.4208 27.2952 56.3209 26.8067 56.212C26.3092 56.1031 25.8388 55.9487 25.4045 55.7399C24.9703 55.5402 24.6085 55.2679 24.319 54.9592C24.0385 54.6415 23.8938 54.1876 23.8938 53.6066C23.8938 52.9711 24.0476 52.4627 24.3642 52.0633C24.6718 51.6729 25.0517 51.3552 25.495 51.1101C25.9292 50.874 26.4177 50.7106 26.9695 50.5926C27.5123 50.4837 28.0189 50.4383 28.4893 50.4383C30.8233 50.4383 33.0215 50.8831 35.066 51.7546C37.1105 52.6261 39.0464 53.6974 40.8557 54.9683L46.6363 39.7079C40.9823 36.2219 34.7765 34.4698 28.037 34.4607C24.8165 34.4607 21.6865 34.9419 18.656 35.9132C15.6255 36.8846 12.9116 38.3008 10.5143 40.1709C8.1351 42.0501 6.20823 44.3468 4.75177 47.0885C3.29531 49.8301 2.56256 52.962 2.56256 56.4934C2.56256 58.8174 2.9606 60.8782 3.75668 62.6666C4.5618 64.4641 5.66545 66.0164 7.06763 67.3328C8.46981 68.6582 10.0982 69.7203 11.9707 70.5374C13.8252 71.3635 15.8064 71.9535 17.878 72.3258L22.1569 73.1246C22.6273 73.2336 23.143 73.3334 23.7129 73.4424C24.2828 73.5513 24.8075 73.7056 25.2688 73.9235C25.7392 74.1323 26.1192 74.4319 26.4268 74.8313C26.7343 75.2217 26.8972 75.7755 26.8881 76.4472C26.8881 77.1372 26.7072 77.7 26.3454 78.1449C25.9835 78.5988 25.5221 78.971 24.9794 79.2524C24.4275 79.5429 23.8395 79.7517 23.1791 79.8516C22.5368 79.9605 21.9488 80.0059 21.4332 80.0059C18.9364 80.0059 16.5844 79.4703 14.3499 78.4172C12.1155 77.3641 10.0439 76.0569 8.1351 74.5408L7.04954 73.6602L0.5 90.5093C3.82 92.1979 7.47472 93.5324 11.4732 94.5128C15.4626 95.5023 19.3254 95.9925 23.0615 95.9925C26.2277 95.9925 29.3397 95.5659 32.3973 94.6944C35.464 93.8319 38.187 92.5065 40.5752 90.709C42.9544 88.9206 44.8813 86.7056 46.3377 84.0729C47.7942 81.4402 48.5269 78.3264 48.5269 74.7405C48.5269 72.2077 48.138 69.9927 47.369 68.0863C46.591 66.1889 45.5145 64.5548 44.1395 63.184L44.1576 63.2022Z" fill="white"/>
<path d="M102.199 61.1687C102.199 56.6296 102.977 52.2721 104.397 48.2232C104.334 48.0689 104.27 47.9236 104.207 47.7693C103.013 45.0368 101.358 42.74 99.2317 40.9244C97.1058 39.1087 94.5909 37.7379 91.687 36.8392C88.7922 35.9405 85.626 35.4956 82.1974 35.4866L55.2032 35.4593L55.1399 95.0847L75.675 95.1119L75.6931 77.1553H86.5849C89.5431 77.1735 92.2298 76.7196 94.6452 75.7936C97.0515 74.8767 99.096 73.5604 100.761 71.8537C101.774 70.8097 102.642 69.6295 103.375 68.3223C101.991 63.6379 102.199 61.1778 102.199 61.1778V61.1687ZM84.8842 59.5709C84.4228 60.2881 83.8258 60.8328 83.093 61.2322C82.3693 61.6226 81.5371 61.8768 80.5963 61.9766C79.6735 62.0856 78.7327 62.131 77.8009 62.131H75.6931L75.7022 51.7637H77.7286C78.6151 51.7637 79.5288 51.8091 80.4515 51.8999C81.3833 51.9725 82.2246 52.1722 82.9845 52.49C83.7353 52.8077 84.3505 53.2979 84.8571 53.9515C85.3456 54.6142 85.5898 55.5221 85.5898 56.6841C85.5898 57.9005 85.3456 58.8538 84.8842 59.5618V59.5709Z" fill="white"/>
<path d="M269.122 63.4564C267.738 62.0856 266.1 60.9508 264.182 60.0521C262.265 59.1533 260.184 58.4361 257.959 57.9005L253.128 56.7839C252.712 56.675 252.259 56.5751 251.771 56.4662C251.273 56.3573 250.803 56.2029 250.369 55.9941C249.934 55.7944 249.573 55.5221 249.283 55.2134C249.003 54.8957 248.858 54.4418 248.858 53.8608C248.858 53.2253 249.012 52.7169 249.328 52.3175C249.645 51.9271 250.016 51.6094 250.459 51.3643C250.893 51.1282 251.382 50.9648 251.934 50.8468C252.476 50.7379 252.983 50.6925 253.453 50.6925C255.787 50.6925 257.986 51.1373 260.03 52.0088C262.075 52.8803 264.011 53.9515 265.82 55.2225L271.6 39.9621C265.946 36.4761 259.741 34.724 253.001 34.7149C249.781 34.7149 246.651 35.196 243.62 36.1674C240.59 37.1388 237.876 38.555 235.478 40.4251C233.099 42.3042 231.172 44.601 229.716 47.3426C228.259 50.0842 227.527 53.2162 227.527 56.7476C227.527 59.0716 227.925 61.1324 228.721 62.9208C229.526 64.7182 230.63 66.2706 232.032 67.5869C233.434 68.9123 235.062 69.9745 236.935 70.7915C238.789 71.6176 240.771 72.2077 242.842 72.5799L247.121 73.3788C247.591 73.4877 248.107 73.5876 248.677 73.6965C249.247 73.8055 249.772 73.9598 250.233 74.1777C250.703 74.3865 251.083 74.6861 251.391 75.0855C251.698 75.4759 251.861 76.0296 251.852 76.7014C251.852 77.3914 251.671 77.9542 251.309 78.399C250.948 78.8529 250.486 79.2252 249.943 79.5066C249.392 79.7971 248.804 80.0059 248.143 80.1057C247.501 80.2147 246.913 80.2601 246.397 80.2601C243.901 80.2601 241.548 79.7244 239.314 78.6714C237.08 77.6092 235.008 76.3111 233.099 74.795L232.014 73.9144L225.455 90.7544C228.775 92.443 232.43 93.7774 236.428 94.7579C240.418 95.7474 244.28 96.2376 248.017 96.2376C251.183 96.2376 254.295 95.811 257.352 94.9394C260.419 94.077 263.142 92.7516 265.53 90.9541C267.909 89.1657 269.836 86.9507 271.293 84.318C272.749 81.6853 273.482 78.5715 273.482 74.9856C273.482 72.4528 273.093 70.2378 272.324 68.3313C271.546 66.434 270.47 64.7999 269.095 63.4291L269.122 63.4564Z" fill="white"/>
<path d="M176.134 43.7204C176.894 45.2547 177.573 46.8433 178.134 48.4774C178.83 50.52 179.364 52.6352 179.717 54.8049L188.329 54.4236L188.283 95.23L209.606 95.2572L209.651 54.4508L222.18 55.0228L222.198 35.6409L176.134 35.5955V43.7204Z" fill="white"/>
<path d="M136.086 65.8349C136.403 66.1526 136.801 66.3796 137.181 66.6338C137.38 66.7608 137.543 66.9424 137.76 67.0513C138.384 67.36 139.072 67.5779 139.795 67.6596V62.0765H134.277C134.44 63.5381 135.1 64.8544 136.086 65.8439V65.8349Z" fill="#CC2027"/>
<path d="M132.803 60.5695C133.146 56.8202 136.105 53.8244 139.804 53.4704V42.6674V42.6583C131.419 42.9942 124.462 49.0312 122.598 57.0381C122.571 57.147 122.58 57.2651 122.553 57.374C122.327 58.418 122.164 59.4801 122.119 60.5786H132.794L132.803 60.5695Z" fill="#CC2027"/>
<path d="M114.438 62.0674C114.04 62.0674 113.706 61.7315 113.706 61.323C113.706 60.9145 114.04 60.5786 114.438 60.5786H117.813C118.202 48.4592 127.854 38.6821 139.813 38.2826V34.8692C139.813 34.4607 140.139 34.1248 140.546 34.1248V32.4363C133.807 32.5997 121.748 35.3594 114.999 47.5877C109.915 56.8021 114.529 69.9382 115.777 73.0792C116.157 71.7084 116.637 70.1016 117.098 68.7489C117.46 67.6596 117.84 66.6156 118.22 65.7168C117.994 64.5276 117.849 63.3111 117.813 62.0765H114.438V62.0674Z" fill="#CC2027"/>
<path d="M134.286 60.5695H139.795V54.9774C136.919 55.3133 134.621 57.6373 134.286 60.5695Z" fill="#CC2027"/>
<path d="M140.546 90.2188C140.148 90.2188 139.813 89.8829 139.813 89.4744V84.3634C130.134 84.0457 121.974 77.5911 119.007 68.7126C119.052 72.1351 119.423 77.237 120.825 82.9472C122.743 90.7817 137.733 114.458 137.733 114.458L136.973 114.694L134.883 112.115C135.616 113.096 136.303 113.995 136.919 114.802C138.049 114.321 139.271 114.022 140.546 113.949V90.2188Z" fill="#CC2027"/>
<path d="M139.786 79.9786V69.1756C137.941 68.9941 136.276 68.1589 135.028 66.9061C133.78 65.6442 132.956 63.9557 132.785 62.0856H122.11C122.255 65.7259 123.431 69.103 125.348 71.9263C128.542 76.6106 133.798 79.7517 139.777 79.9877L139.786 79.9786Z" fill="#CC2027"/>
<path d="M146.725 60.3153C146.3 57.61 144.201 55.4767 141.514 55.05C141.433 55.0409 141.37 54.9955 141.288 54.9865V60.5786H146.806C146.797 60.4878 146.743 60.4152 146.734 60.3244L146.725 60.3153Z" fill="#751117"/>
<path d="M146.046 55.7399C147.295 57.0018 148.118 58.6903 148.29 60.5604H158.964C158.955 60.2427 158.874 59.9522 158.838 59.6435C158.548 56.3391 157.463 53.2616 155.681 50.6743C152.478 46.0081 147.24 42.8943 141.279 42.6583V53.4704C141.279 53.4704 141.351 53.4976 141.387 53.4976C143.188 53.6973 144.816 54.5053 146.037 55.7399H146.046Z" fill="#751117"/>
<path d="M146.797 62.0765H141.279V67.6687C144.156 67.3328 146.453 65.0088 146.797 62.0765Z" fill="#751117"/>
<path d="M158.955 62.0765H148.281C147.937 65.8258 144.988 68.8216 141.279 69.1756V79.9877C144.87 79.8516 148.208 78.6623 150.986 76.7105C155.617 73.4696 158.72 68.1407 158.964 62.0765H158.955Z" fill="#751117"/>
<path d="M119.007 68.7127C121.983 77.582 130.143 84.0366 139.814 84.3634V89.4744C139.814 89.8829 140.139 90.2188 140.546 90.2188C140.944 90.2188 141.279 89.8829 141.279 89.4744V84.3634C153.247 83.973 162.891 74.1959 163.28 62.0765H166.654C167.061 62.0765 167.387 61.7406 167.387 61.3321C167.387 60.9236 167.052 60.5877 166.654 60.5877H163.28C162.891 48.4683 153.238 38.6912 141.279 38.2917V34.8783C141.279 34.4698 140.944 34.1339 140.546 34.1339C140.148 34.1339 139.814 34.4698 139.814 34.8783V38.2826C127.845 38.6821 118.202 48.4593 117.813 60.5786H114.439C114.041 60.5786 113.706 60.9145 113.706 61.323C113.706 61.7315 114.041 62.0674 114.439 62.0674H117.813C117.849 63.3111 117.994 64.5276 118.22 65.7078C118.528 64.9724 118.844 64.3461 119.134 63.8831C119.079 64.1463 119.043 64.4278 118.998 64.7183L119.125 64.2916C119.125 64.2916 118.962 65.9529 118.998 68.7127H119.007ZM141.288 42.6583C147.25 42.8943 152.487 46.0172 155.69 50.6743C157.463 53.2616 158.548 56.3391 158.847 59.6436C158.874 59.9522 158.956 60.2427 158.974 60.5605H148.299C148.127 58.6813 147.295 57.0018 146.055 55.7399C144.834 54.5053 143.206 53.6974 141.406 53.4976C141.369 53.4976 141.333 53.4704 141.297 53.4704V42.6583H141.288ZM141.288 54.9774C141.369 54.9865 141.433 55.0319 141.514 55.0409C144.201 55.4676 146.309 57.601 146.725 60.3063C146.743 60.397 146.788 60.4697 146.797 60.5605H141.279V54.9683L141.288 54.9774ZM141.288 62.0674H146.806C146.472 64.9906 144.165 67.3237 141.288 67.6596V62.0674ZM141.279 79.9877V69.1756C144.988 68.8216 147.937 65.8258 148.281 62.0765H158.956C158.72 68.1407 155.617 73.4787 150.977 76.7105C148.199 78.6532 144.861 79.8425 141.27 79.9877H141.279ZM139.804 62.0674V67.6505C139.081 67.5688 138.393 67.3509 137.769 67.0423C137.552 66.9333 137.389 66.7518 137.19 66.6247C136.81 66.3796 136.412 66.1526 136.095 65.8258C135.118 64.8363 134.449 63.5199 134.286 62.0584H139.804V62.0674ZM139.804 60.5695H134.295C134.63 57.6373 136.937 55.3133 139.804 54.9774V60.5695ZM122.562 57.3649C122.589 57.256 122.58 57.138 122.607 57.029C124.471 49.0221 131.419 42.9851 139.814 42.6402V53.4523C136.105 53.8063 133.155 56.8021 132.812 60.5514H122.137C122.182 59.4529 122.345 58.3908 122.571 57.3468L122.562 57.3649ZM132.794 62.0674C132.965 63.9375 133.798 65.6261 135.037 66.8879C136.285 68.1498 137.95 68.985 139.795 69.1575V79.9696C133.816 79.7335 128.56 76.5925 125.367 71.9082C123.449 69.0939 122.264 65.7078 122.128 62.0674H132.803H132.794Z" fill="white"/>
<path d="M137.724 114.467C137.724 114.467 122.734 90.7907 120.816 82.9563C119.414 77.2461 119.052 72.1442 118.998 68.7217C118.962 65.962 119.124 64.3007 119.124 64.3007L118.998 64.7273C118.066 71.3998 119.966 82.23 120.318 83.7098C120.68 85.244 122.282 90.1099 134.078 111.071C133.987 110.981 133.897 110.899 133.807 110.808L134.874 112.124L136.964 114.703L137.724 114.467Z" fill="#751117"/>
<path d="M115.777 73.0792C114.538 69.9291 109.915 56.8021 114.999 47.5877C121.748 35.3594 133.807 32.5997 140.546 32.4363V34.1248C140.944 34.1248 141.279 34.4607 141.279 34.8692V38.2826C153.247 38.673 162.891 48.4502 163.28 60.5786H166.654C167.052 60.5786 167.387 60.9145 167.387 61.323C167.387 61.7315 167.052 62.0674 166.654 62.0674H163.28C162.891 74.1868 153.238 83.9639 141.279 84.3543V89.4653C141.279 89.8738 140.944 90.2097 140.546 90.2097V113.94C140.772 113.931 140.989 113.922 141.216 113.922C141.903 113.922 142.582 113.985 143.242 114.113C157.228 95.6385 171.955 72.3348 171.955 61.1596C171.955 44.1471 158.168 30.312 141.216 30.312C124.263 30.312 109.246 42.4404 110.341 59.4166C110.829 66.9333 112.177 70.156 114.972 76.0841C114.972 76.0841 115.307 74.7678 115.777 73.0792Z" fill="#751117"/>
<path d="M176.134 43.7204C173.059 37.5564 168.418 32.3092 162.728 28.5145C161.814 27.9063 160.873 27.3343 159.905 26.7987C155.762 24.5201 151.167 22.9768 146.282 22.3323C145.169 22.187 144.038 22.0872 142.898 22.0418C142.337 22.0145 141.777 22.0055 141.216 22.0055C138.936 22.0055 136.711 22.2052 134.53 22.5865C131.057 23.1856 127.746 24.2568 124.652 25.7184C123.033 26.481 121.468 27.3616 119.975 28.3329C119.903 28.3783 119.839 28.4237 119.767 28.4691C112.702 33.1535 107.238 40.071 104.388 48.2141C102.968 52.2721 102.19 56.6296 102.19 61.1596C102.19 61.1596 101.982 63.6289 103.366 68.3041C105.745 76.3383 112.828 90.9178 133.807 110.79C133.897 110.881 133.988 110.962 134.078 111.053C122.291 90.0917 120.681 85.2258 120.319 83.6916C119.975 82.2209 118.066 71.3907 118.998 64.7092C119.034 64.4277 119.079 64.1463 119.134 63.874C118.835 64.337 118.527 64.9633 118.22 65.6987C117.84 66.5974 117.46 67.6505 117.098 68.7308C117.234 68.3313 117.37 67.9501 117.505 67.6051C117.18 69.7839 117.08 80.2873 117.08 80.2873L114.972 76.0659C112.186 70.1379 110.829 66.9151 110.341 59.3984C109.246 42.4223 124.263 30.2938 141.216 30.2938C158.168 30.2938 171.955 44.129 171.955 61.1414C171.955 72.3167 157.228 95.6203 143.242 114.094C142.582 113.967 141.912 113.904 141.216 113.904C140.99 113.904 140.763 113.904 140.546 113.922C139.262 114.004 138.04 114.294 136.919 114.775C132.984 116.464 130.224 120.376 130.224 124.934C130.224 131.025 135.164 135.973 141.225 135.973C147.286 135.973 152.225 131.016 152.225 124.934C152.225 122.582 151.483 120.395 150.226 118.606C161.669 103.473 180.242 76.5471 180.242 61.1414C180.242 59.0081 180.07 56.911 179.735 54.8684C179.735 54.8412 179.726 54.814 179.717 54.7776C179.364 52.608 178.83 50.4927 178.134 48.4502C177.573 46.807 176.903 45.2274 176.134 43.6932V43.7204ZM140.492 132.696C135.571 132.696 131.563 128.674 131.563 123.735C131.563 118.797 135.571 114.775 140.492 114.775C145.413 114.775 149.421 118.797 149.421 123.735C149.421 128.674 145.413 132.696 140.492 132.696ZM146.408 115.238C145.694 114.848 144.925 114.548 144.12 114.321C153.329 102.148 173.683 73.6058 173.683 59.2623C173.683 40.6157 158.567 25.4461 139.985 25.4461C121.404 25.4461 106.288 40.6157 106.288 59.2623C106.288 63.4654 108.043 68.8851 110.739 74.7587L113.036 79.8969C118.555 90.3731 120.102 91.399 128.288 103.191C119.088 94.5945 112.801 84.1727 111.598 82.1029C111.544 82.0121 111.498 81.9304 111.453 81.8397C111.417 81.7761 111.39 81.7307 111.39 81.7307C105.112 70.3285 103.927 64.9089 103.927 59.2623C103.927 39.3084 120.102 23.0767 139.985 23.0767C159.869 23.0767 176.044 39.3084 176.044 59.2623C176.044 74.0597 156.64 101.685 146.399 115.238H146.408Z" fill="#90908F"/>
<path d="M139.985 23.0676C120.102 23.0676 103.927 39.2994 103.927 59.2532C103.927 64.8998 105.112 70.3195 111.39 81.7217C111.39 81.7217 111.417 81.758 111.453 81.8306C111.499 81.9214 111.553 82.0031 111.598 82.0939C112.801 84.1637 119.088 94.5854 128.289 103.182C120.102 91.3899 118.555 90.3641 113.036 79.8879L110.739 74.7496C108.034 68.876 106.288 63.4564 106.288 59.2532C106.288 40.6066 121.404 25.437 139.985 25.437C158.567 25.437 173.683 40.6066 173.683 59.2532C173.683 73.5967 153.32 102.138 144.12 114.312C144.925 114.53 145.685 114.839 146.408 115.229C156.649 101.675 176.053 74.0506 176.053 59.2532C176.053 39.2994 159.878 23.0676 139.994 23.0676H139.985Z" fill="white"/>
<path d="M140.492 116.546C136.548 116.546 133.336 119.768 133.336 123.726C133.336 127.684 136.548 130.907 140.492 130.907C144.436 130.907 147.647 127.684 147.647 123.726C147.647 119.768 144.436 116.546 140.492 116.546ZM141.216 130.072C138.411 130.072 136.122 127.784 136.122 124.97C136.122 122.156 138.402 119.868 141.216 119.868C144.029 119.868 146.3 122.156 146.3 124.97C146.3 127.784 144.02 130.072 141.216 130.072Z" fill="#90908F"/>
<path d="M140.492 114.766C135.571 114.766 131.563 118.788 131.563 123.726C131.563 128.665 135.571 132.686 140.492 132.686C145.413 132.686 149.421 128.665 149.421 123.726C149.421 118.788 145.413 114.766 140.492 114.766ZM140.492 130.907C136.548 130.907 133.336 127.684 133.336 123.726C133.336 119.768 136.548 116.546 140.492 116.546C144.436 116.546 147.648 119.768 147.648 123.726C147.648 127.684 144.436 130.907 140.492 130.907Z" fill="white"/>
<path d="M114.972 76.075L117.08 80.2964C117.08 80.2964 117.189 69.793 117.505 67.6142C117.369 67.9592 117.234 68.3404 117.098 68.7399C116.637 70.0925 116.157 71.7084 115.777 73.0702C115.307 74.7496 114.972 76.066 114.972 76.066V76.075Z" fill="white"/>
</g>
<defs>
<clipPath id="clip0_5521_21209">
<rect width="273" height="136" fill="white" transform="translate(0.5)"/>
</clipPath>
</defs>
</svg>
