<svg width="15" height="15" viewBox="0 0 15 15" fill="none" xmlns="http://www.w3.org/2000/svg">
<path d="M7.5 14.5C11.366 14.5 14.5 11.366 14.5 7.5C14.5 3.63401 11.366 0.5 7.5 0.5C3.63401 0.5 0.5 3.63401 0.5 7.5C0.5 11.366 3.63401 14.5 7.5 14.5Z" stroke="#295EC5" stroke-linecap="round" stroke-linejoin="round"/>
<path d="M7.5 2.5V0.5" stroke="#295EC5" stroke-linecap="round" stroke-linejoin="round"/>
<path d="M12.5 7.5H14.5" stroke="#295EC5" stroke-linecap="round" stroke-linejoin="round"/>
<path d="M7.5 12.5V14.5" stroke="#295EC5" stroke-linecap="round" stroke-linejoin="round"/>
<path d="M2.5 7.5H0.5" stroke="#295EC5" stroke-linecap="round" stroke-linejoin="round"/>
<path d="M7.5 9.5C8.60457 9.5 9.5 8.60457 9.5 7.5C9.5 6.39543 8.60457 5.5 7.5 5.5C6.39543 5.5 5.5 6.39543 5.5 7.5C5.5 8.60457 6.39543 9.5 7.5 9.5Z" stroke="#295EC5" stroke-linecap="round" stroke-linejoin="round"/>
</svg>
