<svg width="16" height="16" viewBox="0 0 16 16" fill="none" xmlns="http://www.w3.org/2000/svg">
<g clip-path="url(#clip0_952_22554)">
<path d="M7.1039 1.80892C7.47119 1.06738 8.52881 1.06738 8.8961 1.80892L10.2389 4.51995C10.3849 4.8146 10.6663 5.01867 10.9917 5.06578L13.9886 5.49961C14.81 5.61852 15.1374 6.62849 14.542 7.20669L12.3783 9.30788C12.1416 9.53779 12.0335 9.86971 12.0895 10.1949L12.601 13.1661C12.7416 13.9825 11.8854 14.606 11.1515 14.2216L8.46397 12.814C8.17338 12.6618 7.82662 12.6618 7.53603 12.814L4.84846 14.2216C4.11462 14.606 3.25844 13.9825 3.39899 13.1661L3.91053 10.1949C3.96652 9.86971 3.85845 9.53779 3.6217 9.30788L1.45801 7.20669C0.862614 6.62849 1.19003 5.61852 2.01141 5.49961L5.00826 5.06578C5.33368 5.01867 5.61515 4.8146 5.76109 4.51995L7.1039 1.80892Z" stroke="black" stroke-linecap="round" stroke-linejoin="round"/>
</g>
<defs>
<clipPath id="clip0_952_22554">
<rect width="16" height="16" fill="white"/>
</clipPath>
</defs>
</svg>
