<svg width="24" height="24" viewBox="0 0 24 24" fill="none" xmlns="http://www.w3.org/2000/svg">
<path d="M11.4372 4.30916C11.8045 3.56763 12.8621 3.56763 13.2294 4.30916L14.9842 7.85199C15.1302 8.14664 15.4117 8.35071 15.7371 8.39782L19.6553 8.96503C20.4766 9.08393 20.8041 10.0939 20.2087 10.6721L17.3783 13.4207C17.1416 13.6506 17.0335 13.9825 17.0895 14.3078L17.7584 18.1931C17.899 19.0095 17.0428 19.633 16.3089 19.2486L12.7973 17.4094C12.5067 17.2572 12.16 17.2572 11.8694 17.4094L8.35773 19.2486C7.62388 19.633 6.7677 19.0095 6.90826 18.1931L7.57719 14.3078C7.63319 13.9825 7.52511 13.6506 7.28836 13.4207L4.45801 10.6721C3.86261 10.0939 4.19003 9.08393 5.01141 8.96503L8.92959 8.39782C9.25501 8.35071 9.53648 8.14664 9.68242 7.85199L11.4372 4.30916Z" stroke="black" stroke-width="2.24615" stroke-linecap="round" stroke-linejoin="round"/>
</svg>
