<svg width="38" height="49" viewBox="0 0 38 49" fill="none" xmlns="http://www.w3.org/2000/svg">
<g filter="url(#filter0_d_6086_11815)">
<path d="M17.3556 43.8133C5.24711 26.2524 3 24.4516 3 18C3 9.16267 10.1627 2 19 2C27.8373 2 35 9.16267 35 18C35 24.4516 32.7529 26.2489 20.6444 43.8062C20.4606 44.071 20.2154 44.2875 19.9299 44.4373C19.6444 44.587 19.3269 44.6656 19.0045 44.6663C18.6821 44.667 18.3643 44.5898 18.0781 44.4413C17.792 44.2928 17.5459 44.0774 17.3609 43.8133L17.3573 43.8062L17.3556 43.8133Z" fill="#696969"/>
<g clip-path="url(#clip0_6086_11815)">
<path d="M14.5 10.5V25.5" stroke="white" stroke-width="1.2" stroke-linecap="round" stroke-linejoin="round"/>
<path d="M17.5 11.5L26.5 16.5L17.5 21.5V11.5Z" stroke="white" stroke-width="1.2" stroke-linecap="round" stroke-linejoin="round"/>
</g>
</g>
<defs>
<filter id="filter0_d_6086_11815" x="0" y="0" width="38" height="48.6663" filterUnits="userSpaceOnUse" color-interpolation-filters="sRGB">
<feFlood flood-opacity="0" result="BackgroundImageFix"/>
<feColorMatrix in="SourceAlpha" type="matrix" values="0 0 0 0 0 0 0 0 0 0 0 0 0 0 0 0 0 0 127 0" result="hardAlpha"/>
<feOffset dy="1"/>
<feGaussianBlur stdDeviation="1.5"/>
<feComposite in2="hardAlpha" operator="out"/>
<feColorMatrix type="matrix" values="0 0 0 0 0 0 0 0 0 0 0 0 0 0 0 0 0 0 0.1 0"/>
<feBlend mode="normal" in2="BackgroundImageFix" result="effect1_dropShadow_6086_11815"/>
<feBlend mode="normal" in="SourceGraphic" in2="effect1_dropShadow_6086_11815" result="shape"/>
</filter>
<clipPath id="clip0_6086_11815">
<rect width="16" height="16" fill="white" transform="translate(12 10)"/>
</clipPath>
</defs>
</svg>
