<svg width="16" height="16" viewBox="0 0 16 16" fill="none" xmlns="http://www.w3.org/2000/svg">
<path d="M0.5 13.5C1.21529 13.502 1.92221 13.3462 2.57039 13.0437C3.21857 12.7412 3.79206 12.2995 4.25 11.75C4.70926 12.2979 5.28302 12.7386 5.9309 13.0409C6.57878 13.3432 7.28505 13.4999 8 13.4999C8.71495 13.4999 9.42122 13.3432 10.0691 13.0409C10.717 12.7386 11.2907 12.2979 11.75 11.75C12.2067 12.3009 12.78 12.7436 13.4284 13.0462C14.0769 13.3488 14.7844 13.5038 15.5 13.5" stroke="black" stroke-linecap="round" stroke-linejoin="round"/>
<path d="M0.5 9.50001H1.182C5.273 9.50001 4.392 5.13001 6.988 2.96201C9.836 0.583014 12.415 3.30101 12.82 3.80901C9.988 4.31701 10.727 9.50001 14.82 9.50001H15.5" stroke="black" stroke-linecap="round" stroke-linejoin="round"/>
</svg>
