<svg width="16" height="16" viewBox="0 0 16 16" fill="none" xmlns="http://www.w3.org/2000/svg">
<path d="M4.318 9C3.47312 9.40978 2.76071 10.0492 2.26234 10.845C1.76396 11.6409 1.49977 12.561 1.5 13.5C1.5 13.5 3.5 15.5 8 15.5C12.5 15.5 14.5 13.5 14.5 13.5C14.5001 12.5609 14.2358 11.6407 13.7372 10.8449C13.2387 10.049 12.5261 9.40964 11.681 9" stroke="black" stroke-linecap="round" stroke-linejoin="round"/>
<path d="M11.5 4C11.5 5.933 9.933 8.5 8 8.5C6.067 8.5 4.5 5.933 4.5 4C4.5 3.07174 4.86875 2.1815 5.52513 1.52513C6.1815 0.868749 7.07174 0.5 8 0.5C8.92826 0.5 9.8185 0.868749 10.4749 1.52513C11.1313 2.1815 11.5 3.07174 11.5 4Z" stroke="black" stroke-linecap="round" stroke-linejoin="round"/>
</svg>
